<svg width="25" height="24" viewBox="0 0 25 24" fill="none" xmlns="http://www.w3.org/2000/svg">
<path d="M3.42188 12C3.42188 16.9706 7.45131 21 12.4219 21C17.3924 21 21.4219 16.9706 21.4219 12C21.4219 7.02944 17.3924 3 12.4219 3C7.45131 3 3.42188 7.02944 3.42188 12Z" fill="white"/>
<path fill-rule="evenodd" clip-rule="evenodd" d="M12.4219 4C8.0036 4 4.42188 7.58172 4.42188 12C4.42188 16.4183 8.0036 20 12.4219 20C16.8402 20 20.4219 16.4183 20.4219 12C20.4219 7.58172 16.8402 4 12.4219 4ZM2.42188 12C2.42188 6.47715 6.89903 2 12.4219 2C17.9447 2 22.4219 6.47715 22.4219 12C22.4219 17.5228 17.9447 22 12.4219 22C6.89903 22 2.42188 17.5228 2.42188 12ZM12.4219 7C12.9742 7 13.4219 7.44772 13.4219 8V11H16.4219C16.9742 11 17.4219 11.4477 17.4219 12C17.4219 12.5523 16.9742 13 16.4219 13H13.4219V16C13.4219 16.5523 12.9742 17 12.4219 17C11.8696 17 11.4219 16.5523 11.4219 16V13H8.42188C7.86959 13 7.42188 12.5523 7.42188 12C7.42188 11.4477 7.86959 11 8.42188 11H11.4219V8C11.4219 7.44772 11.8696 7 12.4219 7Z" fill="#005FD2"/>
</svg>
