<svg width="25" height="24" viewBox="0 0 25 24" fill="none" xmlns="http://www.w3.org/2000/svg">
<g id="Edit / Add_Plus_Square">
<path id="Vector (Stroke)" fill-rule="evenodd" clip-rule="evenodd" d="M17.6314 7.05021C18.0219 7.44074 18.0219 8.0739 17.6314 8.46442L14.0959 12L17.6314 15.5355C18.0219 15.926 18.0219 16.5592 17.6314 16.9497C17.2409 17.3402 16.6077 17.3402 16.2172 16.9497L12.6816 13.4142L9.14611 16.9497C8.75558 17.3402 8.12242 17.3402 7.73189 16.9497C7.34137 16.5592 7.34137 15.926 7.73189 15.5355L11.2674 12L7.73189 8.46442C7.34137 8.0739 7.34137 7.44074 7.73189 7.05021C8.12242 6.65969 8.75558 6.65969 9.14611 7.05021L12.6816 10.5857L16.2172 7.05021C16.6077 6.65969 17.2409 6.65969 17.6314 7.05021Z" fill="#E32A3B"/>
</g>
</svg>
