<svg width="25" height="25" viewBox="0 0 25 25" fill="none" xmlns="http://www.w3.org/2000/svg">
<path d="M9.11193 7.50746C8.7214 7.11693 8.08824 7.11693 7.69771 7.50746C7.30719 7.89798 7.30719 8.53115 7.69771 8.92167L9.11193 7.50746ZM16.183 17.407C16.5735 17.7975 17.2067 17.7975 17.5972 17.407C17.9877 17.0164 17.9877 16.3833 17.5972 15.9927L16.183 17.407ZM7.69771 15.9927C7.30719 16.3833 7.30719 17.0164 7.69771 17.407C8.08824 17.7975 8.7214 17.7975 9.11193 17.407L7.69771 15.9927ZM17.5972 8.92167C17.9877 8.53115 17.9877 7.89798 17.5972 7.50746C17.2067 7.11693 16.5735 7.11693 16.183 7.50746L17.5972 8.92167ZM7.69771 8.92167L16.183 17.407L17.5972 15.9927L9.11193 7.50746L7.69771 8.92167ZM9.11193 17.407L17.5972 8.92167L16.183 7.50746L7.69771 15.9927L9.11193 17.407Z" fill="#BCBDC0"/>
</svg>
