<svg width="25" height="24" viewBox="0 0 25 24" fill="none" xmlns="http://www.w3.org/2000/svg">
<path fill-rule="evenodd" clip-rule="evenodd" d="M18.881 6.00768C19.2715 6.3982 19.2715 7.03137 18.881 7.42189L14.3029 12L18.881 16.5781C19.2715 16.9686 19.2715 17.6018 18.881 17.9923C18.4904 18.3828 17.8573 18.3828 17.4668 17.9923L12.8887 13.4142L8.31059 17.9923C7.92006 18.3828 7.2869 18.3828 6.89637 17.9923C6.50585 17.6018 6.50585 16.9686 6.89637 16.5781L11.4745 12L6.89637 7.42189C6.50585 7.03137 6.50585 6.3982 6.89637 6.00768C7.2869 5.61716 7.92006 5.61715 8.31059 6.00768L12.8887 10.5858L17.4668 6.00768C17.8573 5.61715 18.4904 5.61716 18.881 6.00768Z" fill="#AC1422"/>
</svg>
