<svg width="25" height="24" viewBox="0 0 25 24" fill="none" xmlns="http://www.w3.org/2000/svg">
<path fill-rule="evenodd" clip-rule="evenodd" d="M5.42605 2C5.97833 2 6.42605 2.44772 6.42605 3V5.29184C6.96893 4.80622 7.57134 4.386 8.22158 4.04244C9.71041 3.25581 11.3903 2.90268 13.0698 3.02307C14.7493 3.14346 16.3612 3.73258 17.7225 4.72348C19.0839 5.71439 20.14 7.06734 20.7708 8.62855C20.9777 9.14062 20.7303 9.72345 20.2182 9.93034C19.7061 10.1372 19.1233 9.88984 18.9164 9.37777C18.4258 8.16349 17.6044 7.1112 16.5456 6.34049C15.4867 5.56976 14.2331 5.11158 12.9268 5.01795C11.6205 4.92431 10.3138 5.199 9.1559 5.81079C8.55548 6.12802 8.00749 6.52931 7.52714 7H10.426C10.9783 7 11.426 7.44772 11.426 8C11.426 8.55228 10.9783 9 10.426 9H5.42605C4.87376 9 4.42605 8.55228 4.42605 8V3C4.42605 2.44772 4.87376 2 5.42605 2ZM4.63347 14.0696C5.14554 13.8628 5.72837 14.1101 5.93526 14.6222C6.42586 15.8365 7.24726 16.8888 8.30611 17.6595C9.36491 18.4302 10.6191 18.8884 11.9255 18.9821C13.2317 19.0757 14.5379 18.801 15.6959 18.1892C16.2963 17.872 16.8441 17.4707 17.3244 17H14.426C13.8738 17 13.426 16.5523 13.426 16C13.426 15.4477 13.8738 15 14.426 15H19.426C19.9783 15 20.426 15.4477 20.426 16V21C20.426 21.5523 19.9783 22 19.426 22C18.8738 22 18.426 21.5523 18.426 21V18.7077C17.8831 19.1935 17.2807 19.6139 16.6302 19.9575C15.1414 20.7441 13.462 21.0973 11.7825 20.977C10.103 20.8566 8.49055 20.2675 7.12913 19.2765C5.76775 18.2856 4.71166 16.9326 4.08089 15.3714C3.874 14.8594 4.1214 14.2765 4.63347 14.0696Z" fill="white"/>
</svg>
