<svg width="24" height="24" viewBox="0 0 24 24" fill="none" xmlns="http://www.w3.org/2000/svg">
<path d="M5.00037 19.5V6.19995C5.00037 5.07985 5.00037 4.51986 5.21835 4.09204C5.4101 3.71572 5.71584 3.40973 6.09216 3.21799C6.51999 3 7.08046 3 8.20056 3H17.4006C17.9606 3 18.2408 3 18.4547 3.10899C18.6429 3.20487 18.7951 3.35786 18.891 3.54602C19 3.75993 19.0004 4.03992 19.0004 4.59998V16.4C19.0004 16.96 19 17.2401 18.891 17.454C18.7951 17.6422 18.6429 17.7951 18.4547 17.891C18.2408 18 17.9604 18 17.4004 18H7.25037C6.00773 18 5.00037 19.0074 5.00037 20.25C5.00037 20.6642 5.33615 21 5.75037 21H16.4004C16.9604 21 17.2408 21 17.4547 20.891C17.6429 20.7951 17.7951 20.6422 17.891 20.454C18 20.2401 18.0004 19.9601 18.0004 19.4V18" stroke="#939598" stroke-width="2" stroke-linecap="round" stroke-linejoin="round"/>
<path d="M8.04626 7.99243H15.9994" stroke="#939598" stroke-width="2"/>
</svg>
