<svg width="24" height="25" viewBox="0 0 24 25" fill="none" xmlns="http://www.w3.org/2000/svg">
<g id="Calendar / Calendar">
<path id="Vector" d="M4.00037 8.5H20.0004M16.0004 2.5V4.5M8.00037 2.5V4.5M7.20056 4.5H16.8006C17.9207 4.5 18.4803 4.5 18.9082 4.71799C19.2845 4.90973 19.5908 5.21572 19.7826 5.59204C20.0006 6.01986 20.0004 6.57985 20.0004 7.69995V17.3C20.0004 18.4201 20.0006 18.9802 19.7826 19.408C19.5908 19.7844 19.2845 20.0902 18.9082 20.282C18.4803 20.5 17.9207 20.5 16.8006 20.5H7.20056C6.08046 20.5 5.51999 20.5 5.09216 20.282C4.71584 20.0902 4.4101 19.7844 4.21835 19.408C4.00037 18.9802 4.00037 18.4201 4.00037 17.3V7.69995C4.00037 6.57985 4.00037 6.01986 4.21835 5.59204C4.4101 5.21572 4.71584 4.90973 5.09216 4.71799C5.51999 4.5 6.08046 4.5 7.20056 4.5Z" stroke="#939598" stroke-width="2" stroke-linecap="round" stroke-linejoin="round"/>
</g>
</svg>
