<svg width="25" height="24" viewBox="0 0 25 24" fill="none" xmlns="http://www.w3.org/2000/svg">
<path d="M4.00195 7.00024C3.44967 7.00024 3.00195 7.44796 3.00195 8.00024C3.00195 8.55253 3.44967 9.00024 4.00195 9.00024V7.00024ZM20.002 9.00024C20.5542 9.00024 21.002 8.55253 21.002 8.00024C21.002 7.44796 20.5542 7.00024 20.002 7.00024V9.00024ZM5.09375 19.7822L5.54774 18.8912H5.54774L5.09375 19.7822ZM4.21994 18.9083L3.32893 19.3623H3.32893L4.21994 18.9083ZM19.7842 18.9083L18.8932 18.4543L19.7842 18.9083ZM18.9097 19.7822L18.4557 18.8912L18.9097 19.7822ZM18.9097 4.21823L19.3637 3.32722V3.32722L18.9097 4.21823ZM19.7842 5.09229L18.8932 5.54628L19.7842 5.09229ZM5.09375 4.21823L5.54774 5.10924L5.09375 4.21823ZM4.21994 5.09229L5.11095 5.54628L4.21994 5.09229ZM17.002 2.00024C17.002 1.44796 16.5542 1.00024 16.002 1.00024C15.4497 1.00024 15.002 1.44796 15.002 2.00024H17.002ZM15.002 4.00024C15.002 4.55253 15.4497 5.00024 16.002 5.00024C16.5542 5.00024 17.002 4.55253 17.002 4.00024H15.002ZM9.00195 2.00024C9.00195 1.44796 8.55424 1.00024 8.00195 1.00024C7.44967 1.00024 7.00195 1.44796 7.00195 2.00024H9.00195ZM7.00195 4.00024C7.00195 4.55253 7.44967 5.00024 8.00195 5.00024C8.55424 5.00024 9.00195 4.55253 9.00195 4.00024H7.00195ZM4.00195 9.00024H20.002V7.00024H4.00195V9.00024ZM7.20215 5.00024H16.8021V3.00024H7.20215V5.00024ZM19.002 7.2002V16.8002H21.002V7.2002H19.002ZM16.8021 19.0002H7.20215V21.0002H16.8021V19.0002ZM5.00195 16.8002V7.2002H3.00195V16.8002H5.00195ZM7.20215 19.0002C6.62562 19.0002 6.25322 18.9995 5.96977 18.9763C5.69793 18.9541 5.59714 18.9164 5.54774 18.8912L4.63976 20.6732C5.01818 20.866 5.41154 20.9374 5.80691 20.9697C6.19068 21.001 6.65857 21.0002 7.20215 21.0002V19.0002ZM3.00195 16.8002C3.00195 17.3438 3.00118 17.8116 3.03252 18.1953C3.06482 18.5906 3.13613 18.9839 3.32893 19.3623L5.11095 18.4543C5.08576 18.4049 5.04808 18.3041 5.02588 18.0324C5.00273 17.749 5.00195 17.3767 5.00195 16.8002H3.00195ZM5.54774 18.8912C5.35973 18.7954 5.2069 18.6426 5.11095 18.4543L3.32893 19.3623C3.61648 19.9266 4.07512 20.3855 4.63976 20.6732L5.54774 18.8912ZM19.002 16.8002C19.002 17.3768 19.0012 17.7491 18.9781 18.0326C18.956 18.3043 18.9183 18.405 18.8932 18.4543L20.6752 19.3623C20.868 18.9838 20.9393 18.5904 20.9715 18.1951C21.0028 17.8115 21.002 17.3436 21.002 16.8002H19.002ZM16.8021 21.0002C17.3457 21.0002 17.8134 21.001 18.197 20.9697C18.5924 20.9373 18.9854 20.866 19.3637 20.6732L18.4557 18.8912C18.4062 18.9164 18.3056 18.9541 18.0341 18.9763C17.7509 18.9995 17.3787 19.0002 16.8021 19.0002V21.0002ZM18.8932 18.4543C18.7976 18.6419 18.6444 18.7951 18.4557 18.8912L19.3637 20.6732C19.9277 20.3859 20.3873 19.9273 20.6752 19.3623L18.8932 18.4543ZM16.8021 5.00024C17.3787 5.00024 17.7509 5.00102 18.0341 5.02417C18.3056 5.04636 18.4062 5.08402 18.4557 5.10924L19.3637 3.32722C18.9854 3.13446 18.5923 3.06312 18.197 3.03082C17.8134 2.99947 17.3457 3.00024 16.8021 3.00024V5.00024ZM21.002 7.2002C21.002 6.65675 21.0028 6.18895 20.9715 5.80536C20.9393 5.41007 20.868 5.01678 20.6752 4.63829L18.8932 5.54628C18.9183 5.59562 18.956 5.69623 18.9781 5.96791C19.0012 6.25129 19.002 6.62354 19.002 7.2002H21.002ZM18.4557 5.10924C18.6443 5.20532 18.7975 5.35852 18.8932 5.54628L20.6752 4.63829C20.3874 4.0734 19.9278 3.61464 19.3637 3.32722L18.4557 5.10924ZM7.20215 3.00024C6.65859 3.00024 6.1907 2.99947 5.80694 3.03081C5.41157 3.0631 5.0182 3.1344 4.63976 3.32722L5.54774 5.10924C5.59713 5.08407 5.6979 5.04638 5.96975 5.02417C6.25321 5.00102 6.6256 5.00024 7.20215 5.00024V3.00024ZM5.00195 7.2002C5.00195 6.62364 5.00273 6.25139 5.02588 5.96807C5.04807 5.69644 5.08575 5.59573 5.11095 5.54628L3.32893 4.63829C3.13614 5.01666 3.06483 5.40986 3.03252 5.8052C3.00118 6.18885 3.00195 6.65665 3.00195 7.2002H5.00195ZM4.63976 3.32722C4.07501 3.61498 3.61642 4.07407 3.32893 4.63829L5.11095 5.54628C5.20695 5.35786 5.35984 5.20498 5.54774 5.10924L4.63976 3.32722ZM11.752 17.0002C12.4423 17.0002 13.002 16.4406 13.002 15.7502H11.002C11.002 15.336 11.3377 15.0002 11.752 15.0002V17.0002ZM13.002 15.7502V12.2502H11.002V15.7502H13.002ZM13.002 12.2502C13.002 11.5599 12.4423 11.0002 11.752 11.0002V13.0002C11.3377 13.0002 11.002 12.6645 11.002 12.2502H13.002ZM11.752 11.0002H8.25195V13.0002H11.752V11.0002ZM8.25195 11.0002C7.5616 11.0002 7.00195 11.5599 7.00195 12.2502H9.00195C9.00195 12.6645 8.66617 13.0002 8.25195 13.0002V11.0002ZM7.00195 12.2502V15.7502H9.00195V12.2502H7.00195ZM7.00195 15.7502C7.00195 16.4406 7.5616 17.0002 8.25195 17.0002V15.0002C8.66617 15.0002 9.00195 15.336 9.00195 15.7502H7.00195ZM8.25195 17.0002H11.752V15.0002H8.25195V17.0002ZM15.002 2.00024V4.00024H17.002V2.00024H15.002ZM7.00195 2.00024V4.00024H9.00195V2.00024H7.00195Z" fill="#828282"/>
</svg>
