<svg width="36" height="36" viewBox="0 0 36 36" fill="none" xmlns="http://www.w3.org/2000/svg">
<path fill-rule="evenodd" clip-rule="evenodd" d="M34.8955 8.45425C35.4813 9.04005 35.4813 9.9898 34.8955 10.5756L18.9849 26.4855C18.3991 27.0713 17.4494 27.0712 16.8636 26.4855L9.43897 19.0608C8.85319 18.4751 8.85319 17.5253 9.43897 16.9395C10.0248 16.3537 10.9745 16.3537 11.5603 16.9395L17.9243 23.3035L32.7742 8.45421C33.36 7.86844 34.3097 7.86846 34.8955 8.45425ZM27.4694 8.52967C28.0551 9.11546 28.0551 10.0652 27.4694 10.651L19.5144 18.6059C18.9286 19.1917 17.9789 19.1917 17.3931 18.6059C16.8073 18.0202 16.8073 17.0704 17.3931 16.4846L25.348 8.52967C25.9338 7.94389 26.8836 7.94389 27.4694 8.52967ZM2.01368 17.015C2.59947 16.4292 3.54921 16.4292 4.135 17.015L11.5596 24.4396C12.1454 25.0254 12.1454 25.9751 11.5596 26.5609C10.9738 27.1467 10.0241 27.1467 9.4383 26.5609L2.01368 19.1363C1.42789 18.5505 1.42789 17.6007 2.01368 17.015Z" fill="#939598"/>
</svg>
