<svg width="33" height="33" viewBox="0 0 33 33" fill="none" xmlns="http://www.w3.org/2000/svg">
<g id="Menu / Close_MD">
<path id="Vector (Stroke)" fill-rule="evenodd" clip-rule="evenodd" d="M7.0624 7.23073C7.5831 6.71004 8.42732 6.71004 8.94802 7.23073L16.0052 14.2879L23.0624 7.23073C23.5831 6.71004 24.4274 6.71004 24.9481 7.23073C25.4688 7.75143 25.4688 8.59565 24.9481 9.11635L17.8908 16.1736L24.948 23.2307C25.4687 23.7514 25.4687 24.5956 24.948 25.1163C24.4273 25.637 23.5831 25.637 23.0624 25.1163L16.0052 18.0592L8.94802 25.1164C8.42732 25.6371 7.5831 25.6371 7.0624 25.1164C6.5417 24.5957 6.5417 23.7515 7.0624 23.2308L14.1196 16.1736L7.0624 9.11635C6.5417 8.59565 6.5417 7.75143 7.0624 7.23073Z" fill="white"/>
</g>
</svg>
