<svg width="56" height="56" viewBox="0 0 56 56" fill="none" xmlns="http://www.w3.org/2000/svg">
<g id="Menu / Close_MD">
<path id="Vector (Stroke)" fill-rule="evenodd" clip-rule="evenodd" d="M12.3494 12.3499C13.2607 11.4387 14.738 11.4387 15.6493 12.3499L27.9994 24.7L40.3495 12.3499C41.2607 11.4387 42.7381 11.4387 43.6493 12.3499C44.5606 13.2611 44.5606 14.7385 43.6493 15.6498L31.2992 27.9999L43.6492 40.3498C44.5604 41.2611 44.5604 42.7385 43.6492 43.6497C42.738 44.5609 41.2606 44.5609 40.3494 43.6497L27.9994 31.2997L15.6493 43.6498C14.738 44.5611 13.2607 44.5611 12.3494 43.6498C11.4382 42.7386 11.4382 41.2612 12.3494 40.35L24.6996 27.9999L12.3494 15.6498C11.4382 14.7385 11.4382 13.2611 12.3494 12.3499Z" fill="#AC1422"/>
</g>
</svg>
