<svg width="25" height="24" viewBox="0 0 25 24" fill="none" xmlns="http://www.w3.org/2000/svg">
<g id="Menu / Close_LG">
<path id="Vector (Stroke)" fill-rule="evenodd" clip-rule="evenodd" d="M3.14055 2.29289C3.53107 1.90237 4.16424 1.90237 4.55476 2.29289L12.8477 10.5858L21.1406 2.29289C21.5311 1.90237 22.1643 1.90237 22.5548 2.29289C22.9453 2.68342 22.9453 3.31658 22.5548 3.70711L14.2619 12L22.5547 20.2928C22.9452 20.6834 22.9452 21.3165 22.5547 21.7071C22.1642 22.0976 21.531 22.0976 21.1405 21.7071L12.8477 13.4142L4.55476 21.7072C4.16424 22.0977 3.53107 22.0977 3.14055 21.7072C2.75003 21.3166 2.75003 20.6835 3.14055 20.2929L11.4335 12L3.14055 3.70711C2.75003 3.31658 2.75003 2.68342 3.14055 2.29289Z" fill="#005FD2"/>
</g>
</svg>
