<svg width="25" height="24" viewBox="0 0 25 24" fill="none" xmlns="http://www.w3.org/2000/svg">
<path fill-rule="evenodd" clip-rule="evenodd" d="M12.1851 2H17.8622C18.3893 1.99998 18.844 1.99997 19.2185 2.03057C19.6138 2.06288 20.0069 2.13422 20.3852 2.32698C20.9493 2.61439 21.4088 3.07316 21.6967 3.63805C21.8895 4.01643 21.9608 4.40965 21.9931 4.805C22.0237 5.17957 22.0237 5.63432 22.0237 6.16146V11.8386C22.0237 12.3658 22.0237 12.8205 21.9931 13.1951C21.9608 13.5904 21.8895 13.9836 21.6967 14.362C21.4088 14.927 20.9492 15.3856 20.3852 15.673C20.0069 15.8658 19.6137 15.9371 19.2184 15.9694C18.8438 16 18.3889 16 17.8616 16H16.0237V17.8386C16.0237 18.3657 16.0237 18.8205 15.9931 19.1951C15.9608 19.5904 15.8895 19.9836 15.6967 20.362C15.4088 20.927 14.9492 21.3856 14.3852 21.673C14.0069 21.8657 13.6138 21.9371 13.2185 21.9694C12.8439 22 12.3891 22 11.8618 22H6.18552C5.65816 22 5.20317 22 4.8284 21.9694C4.43302 21.9371 4.03967 21.8658 3.66125 21.673C3.09661 21.3853 2.63796 20.9264 2.35042 20.362C2.15763 19.9836 2.08631 19.5904 2.05401 19.1951C2.0234 18.8205 2.02342 18.3658 2.02344 17.8386V12.1615C2.02342 11.6344 2.0234 11.1796 2.05401 10.805C2.08631 10.4097 2.15762 10.0164 2.35042 9.63805C2.63791 9.07382 3.0965 8.61473 3.66125 8.32698C4.03968 8.13416 4.43306 8.06286 4.82842 8.03057C5.20309 7.99997 5.65794 7.99998 6.18511 8L8.02344 8L8.02344 6.16153C8.02342 5.63438 8.02341 5.17961 8.05401 4.80502C8.08631 4.40968 8.15762 4.01644 8.35042 3.63805C8.63791 3.07382 9.0965 2.61473 9.66125 2.32698C10.0397 2.13416 10.4331 2.06286 10.8284 2.03057C11.2031 1.99997 11.6579 1.99998 12.1851 2ZM9.01127 10C9.01532 10 9.01938 10.0001 9.02344 10.0001C9.0275 10.0001 9.03156 10 9.0356 10H11.8236C12.4002 10 12.7724 10.0008 13.0556 10.0239C13.3271 10.0461 13.4277 10.0838 13.4772 10.109C13.6658 10.2051 13.819 10.3583 13.9147 10.546C13.9399 10.5955 13.9775 10.6962 13.9997 10.9679C14.0229 11.2512 14.0237 11.6235 14.0237 12.2V14.9791C14.0235 14.9861 14.0234 14.993 14.0234 15C14.0234 15.007 14.0235 15.0139 14.0237 15.0209V17.8001C14.0237 18.3766 14.0229 18.7489 13.9997 19.0322C13.9775 19.3039 13.9399 19.4046 13.9147 19.454C13.819 19.6417 13.6659 19.7948 13.4772 19.891C13.4277 19.9162 13.327 19.9539 13.0556 19.9761C12.7723 19.9992 12.4002 20 11.8236 20H6.22363C5.64711 20 5.27471 19.9992 4.99126 19.9761C4.71942 19.9538 4.61863 19.9161 4.56923 19.891C4.38122 19.7952 4.22838 19.6424 4.13243 19.454C4.10724 19.4046 4.06956 19.3039 4.04737 19.0322C4.02422 18.7489 4.02344 18.3766 4.02344 17.8001V12.2001C4.02344 11.6235 4.02422 11.2512 4.04737 10.9679C4.06956 10.6962 4.10724 10.5955 4.13243 10.546C4.22844 10.3576 4.38132 10.2047 4.56923 10.109C4.61861 10.0838 4.71939 10.0461 4.99124 10.0239C5.27469 10.0008 5.64709 10 6.22363 10H9.01127ZM16.0237 14V12.1615C16.0237 11.6343 16.0237 11.1796 15.9931 10.805C15.9608 10.4097 15.8895 10.0164 15.6967 9.63805C15.4088 9.07316 14.9493 8.61439 14.3852 8.32698C14.0069 8.13422 13.6138 8.06288 13.2185 8.03057C12.844 7.99997 12.3893 7.99998 11.8622 8L10.0234 8V6.20008C10.0234 5.62352 10.0242 5.25123 10.0474 4.96788C10.0696 4.6962 10.1072 4.59547 10.1324 4.54603C10.2284 4.35761 10.3813 4.20474 10.5692 4.109C10.6186 4.08383 10.7194 4.04614 10.9912 4.02393C11.2747 4.00078 11.6471 4 12.2236 4H17.8236C18.4002 4 18.7724 4.00078 19.0556 4.02393C19.3271 4.04612 19.4277 4.08377 19.4772 4.109C19.6658 4.20508 19.819 4.35828 19.9147 4.54603C19.9399 4.59548 19.9775 4.6962 19.9997 4.96786C20.0229 5.2512 20.0237 5.62347 20.0237 6.20002V11.8001C20.0237 12.3766 20.0229 12.7489 19.9997 13.0322C19.9775 13.3039 19.9399 13.4046 19.9147 13.454C19.819 13.6417 19.6659 13.7948 19.4772 13.891C19.4277 13.9162 19.327 13.9539 19.0555 13.9761C18.7722 13.9992 18.4 14 17.8234 14H16.0237Z" fill="#005FD2"/>
</svg>
