<svg width="24" height="24" viewBox="0 0 24 24" fill="none" xmlns="http://www.w3.org/2000/svg">
<g id="Edit / Copy">
<path id="Vector" d="M15.0004 15H17.8004C18.9205 15 19.4803 15 19.9082 14.782C20.2845 14.5902 20.5908 14.2844 20.7826 13.908C21.0006 13.4802 21.0006 12.9202 21.0006 11.8V6.20002C21.0006 5.07992 21.0006 4.51986 20.7826 4.09204C20.5908 3.71572 20.2845 3.40973 19.9082 3.21799C19.4803 3 18.9207 3 17.8006 3H12.2006C11.0805 3 10.52 3 10.0922 3.21799C9.71584 3.40973 9.4101 3.71572 9.21835 4.09204C9.00037 4.51986 9.00037 5.07997 9.00037 6.20007V9.00007M3.00037 17.8001V12.2001C3.00037 11.08 3.00037 10.5199 3.21835 10.092C3.4101 9.71572 3.71584 9.40973 4.09216 9.21799C4.51999 9 5.08046 9 6.20056 9H11.8006C12.9207 9 13.4803 9 13.9082 9.21799C14.2845 9.40973 14.5908 9.71572 14.7826 10.092C15.0006 10.5199 15.0006 11.0799 15.0006 12.2V17.8C15.0006 18.9202 15.0006 19.4802 14.7826 19.908C14.5908 20.2844 14.2845 20.5902 13.9082 20.782C13.4803 21 12.9207 21 11.8006 21H6.20056C5.08046 21 4.51999 21 4.09216 20.782C3.71584 20.5902 3.4101 20.2844 3.21835 19.908C3.00037 19.4802 3.00037 18.9202 3.00037 17.8001Z" stroke="#BCBDC0" stroke-width="2" stroke-linecap="round" stroke-linejoin="round"/>
</g>
</svg>
