<svg width="25" height="24" viewBox="0 0 25 24" fill="none" xmlns="http://www.w3.org/2000/svg">
<path fill-rule="evenodd" clip-rule="evenodd" d="M12.5415 2H17.7557C18.2345 1.99998 18.6576 1.99996 19.008 2.0312C19.3829 2.06463 19.7653 2.13949 20.1331 2.34394C20.6717 2.64333 21.0948 3.11197 21.3549 3.66886C21.5279 4.03929 21.5917 4.42285 21.6209 4.81175C21.6487 5.1829 21.6487 5.63468 21.6486 6.16406V11.836C21.6487 12.3654 21.6487 12.8172 21.6209 13.1883C21.5917 13.5772 21.5279 13.9608 21.3549 14.3312C21.0947 14.8882 20.6716 15.3567 20.1331 15.656C19.7652 15.8605 19.3829 15.9354 19.008 15.9688C18.6574 16 18.2341 16 17.7552 16L16.1486 16V17.836C16.1486 18.3654 16.1487 18.8172 16.1209 19.1883C16.0917 19.5772 16.0279 19.9608 15.8549 20.3312C15.5947 20.8882 15.1716 21.3567 14.6331 21.656C14.2653 21.8605 13.883 21.9354 13.5081 21.9688C13.1575 22 12.7343 22 12.2554 22H7.04188C6.56293 22 6.13958 22 5.78885 21.9688C5.41395 21.9354 5.03135 21.8605 4.66342 21.656C4.12426 21.3563 3.70205 20.8875 3.44222 20.3312C3.2692 19.9608 3.20534 19.5772 3.17621 19.1883C3.14841 18.8172 3.14842 18.3654 3.14844 17.836V12.1641C3.14842 11.6347 3.14841 11.1829 3.17621 10.8118C3.20533 10.4229 3.2692 10.0393 3.44222 9.66886C3.702 9.11266 4.12416 8.64368 4.66342 8.34394C5.03136 8.13942 5.41398 8.0646 5.78888 8.0312C6.13951 7.99996 6.56274 7.99998 7.04154 8L8.64844 8L8.64844 6.16411C8.64842 5.63472 8.64841 5.18293 8.67621 4.81177C8.70533 4.42288 8.7692 4.03929 8.94222 3.66886C9.202 3.11266 9.62416 2.64368 10.1634 2.34394C10.5314 2.13942 10.914 2.0646 11.2889 2.0312C11.6395 1.99996 12.0627 1.99998 12.5415 2ZM9.63627 10C9.64032 10.0001 9.64438 10.0001 9.64844 10.0001C9.6525 10.0001 9.65656 10.0001 9.6606 10H12.2153C12.7467 10 13.0795 10.0009 13.3304 10.0233C13.5668 10.0444 13.6371 10.0785 13.6614 10.092C13.8127 10.1761 13.9513 10.3195 14.0428 10.5152C14.0696 10.5726 14.1056 10.683 14.1264 10.9611C14.148 11.2486 14.1486 11.6248 14.1486 12.2V14.98C14.1485 14.9866 14.1484 14.9933 14.1484 15C14.1484 15.0067 14.1485 15.0134 14.1486 15.02V17.8001C14.1486 18.3752 14.148 18.7515 14.1264 19.039C14.1056 19.3171 14.0696 19.4275 14.0428 19.4848C13.9514 19.6805 13.8128 19.8238 13.6614 19.9079C13.637 19.9215 13.5668 19.9556 13.3304 19.9767C13.0795 19.9991 12.7466 20 12.2153 20H7.08195C6.55061 20 6.21755 19.9991 5.96641 19.9767C5.7297 19.9556 5.65933 19.9214 5.63509 19.9079C5.48431 19.8241 5.346 19.6812 5.25431 19.4848C5.22749 19.4274 5.19145 19.3171 5.17062 19.039C5.14909 18.7515 5.14844 18.3753 5.14844 17.8001V12.2001C5.14844 11.6249 5.14909 11.2486 5.17062 10.9611C5.19145 10.683 5.2275 10.5726 5.25431 10.5152C5.34606 10.3188 5.48442 10.1758 5.63509 10.092C5.65931 10.0786 5.72967 10.0444 5.96638 10.0233C6.21754 10.0009 6.5506 10 7.08195 10H9.63627ZM16.1486 14V12.1641C16.1486 11.6347 16.1487 11.1829 16.1209 10.8117C16.0917 10.4229 16.0279 10.0393 15.8549 9.66886C15.5948 9.11196 15.1717 8.64333 14.6331 8.34394C14.2653 8.13949 13.8829 8.06463 13.508 8.0312C13.1576 7.99996 12.7345 7.99998 12.2558 8L10.6484 8V6.20008C10.6484 5.62489 10.6491 5.24863 10.6706 4.96114C10.6915 4.683 10.7275 4.57262 10.7543 4.51523C10.8461 4.31878 10.9844 4.17579 11.1351 4.09204C11.1593 4.07857 11.2297 4.0444 11.4664 4.0233C11.7175 4.00093 12.0506 4 12.582 4H17.7153C18.2467 4 18.5795 4.00093 18.8304 4.0233C19.0668 4.04437 19.1371 4.07851 19.1614 4.09204C19.3127 4.17614 19.4513 4.31947 19.5428 4.51523C19.5696 4.57262 19.6056 4.683 19.6264 4.96112C19.648 5.2486 19.6486 5.62484 19.6486 6.20003V11.8001C19.6486 12.3752 19.648 12.7515 19.6264 13.039C19.6056 13.3171 19.5696 13.4275 19.5428 13.4849C19.4514 13.6805 19.3128 13.8238 19.1614 13.9079C19.1371 13.9215 19.0668 13.9556 18.8303 13.9767C18.5794 13.9991 18.2465 14 17.7151 14H16.1486Z" fill="#005FD2"/>
</svg>
