<svg width="48" height="48" viewBox="0 0 48 48" fill="none" xmlns="http://www.w3.org/2000/svg">
<path fill-rule="evenodd" clip-rule="evenodd" d="M9.25302 12.5538C6.79587 15.7148 5.33268 19.6867 5.33268 24.0003C5.33268 34.3096 13.69 42.667 23.9994 42.667C28.313 42.667 32.2849 41.2038 35.4459 38.7467L9.25302 12.5538ZM12.5528 9.25399L38.7457 35.4468C41.2028 32.2859 42.666 28.314 42.666 24.0003C42.666 13.691 34.3087 5.33366 23.9994 5.33366C19.6857 5.33366 15.7138 6.79685 12.5528 9.25399ZM0.666016 24.0003C0.666016 11.1137 11.1127 0.666992 23.9994 0.666992C36.886 0.666992 47.3327 11.1137 47.3327 24.0003C47.3327 36.887 36.886 47.3337 23.9994 47.3337C11.1127 47.3337 0.666016 36.887 0.666016 24.0003Z" fill="#939598"/>
</svg>
