<svg width="25" height="25" viewBox="0 0 25 25" fill="none" xmlns="http://www.w3.org/2000/svg">
<path fill-rule="evenodd" clip-rule="evenodd" d="M18.0701 5.1482C17.7869 5.12505 17.4146 5.12427 16.8381 5.12427H7.03809C6.55846 5.12427 6.24889 5.12481 6.01198 5.14098C5.78408 5.15653 5.69728 5.18314 5.65563 5.20039C5.41038 5.30198 5.21561 5.49677 5.11421 5.74157C5.09697 5.78319 5.07035 5.87002 5.0548 6.09802C5.03863 6.335 5.03809 6.64463 5.03809 7.12426C5.03809 7.67654 4.59037 8.12426 4.03809 8.12426C3.4858 8.12426 3.03809 7.67654 3.03809 7.12426L3.03809 7.09227C3.03807 6.65362 3.03806 6.27513 3.05944 5.96187C3.08194 5.63204 3.13144 5.30213 3.26645 4.97621C3.57102 4.2409 4.1554 3.65702 4.89027 3.35263C5.21616 3.21764 5.54599 3.16813 5.87581 3.14562C6.18901 3.12425 6.56745 3.12426 7.00609 3.12427L16.8766 3.12427C17.4038 3.12425 17.8585 3.12424 18.233 3.15484C18.6284 3.18714 19.0215 3.25847 19.3999 3.45125C19.9639 3.73866 20.4235 4.19742 20.7113 4.76232C20.9042 5.1408 20.9754 5.5341 21.0076 5.92938C21.0381 6.30326 21.0381 6.75713 21.0381 7.28307V16.9653C21.0381 17.4913 21.0381 17.9452 21.0076 18.3191C20.9754 18.7144 20.9042 19.1078 20.7113 19.4863C20.4234 20.0513 19.9638 20.5099 19.3999 20.7973C19.0215 20.99 18.6284 21.0614 18.2331 21.0937C17.8584 21.1243 17.4036 21.1243 16.8763 21.1243H7.00577C6.56728 21.1243 6.18895 21.1243 5.87582 21.1029C5.54601 21.0804 5.21617 21.0309 4.89027 20.8959C4.15537 20.5915 3.57101 20.0076 3.26645 19.2723C3.13144 18.9464 3.08194 18.6165 3.05944 18.2867C3.03806 17.9734 3.03807 17.5949 3.03809 17.1563L3.03809 17.1243C3.03809 16.572 3.4858 16.1243 4.03809 16.1243C4.59037 16.1243 5.03809 16.572 5.03809 17.1243C5.03809 17.6039 5.03863 17.9135 5.0548 18.1505C5.07035 18.3785 5.09697 18.4653 5.11421 18.507C5.21562 18.7518 5.41042 18.9466 5.65563 19.0482C5.69727 19.0654 5.78406 19.092 6.01196 19.1076C6.24888 19.1237 6.55845 19.1243 7.03809 19.1243H16.8381C17.4146 19.1243 17.7868 19.1235 18.0701 19.1003C18.3417 19.0781 18.4424 19.0405 18.4919 19.0152C18.6806 18.9191 18.8337 18.766 18.9293 18.5783C18.9544 18.529 18.9921 18.4284 19.0143 18.1566C19.0374 17.8732 19.0381 17.5009 19.0381 16.9242V7.32422C19.0381 6.74757 19.0374 6.37532 19.0143 6.09194C18.9921 5.82025 18.9544 5.71964 18.9293 5.6703C18.8336 5.48255 18.6805 5.32935 18.4919 5.23326C18.4424 5.20806 18.3417 5.17039 18.0701 5.1482ZM11.331 8.41716C11.7215 8.02664 12.3547 8.02664 12.7452 8.41716L15.7452 11.4172C16.1357 11.8077 16.1357 12.4409 15.7452 12.8314L12.7452 15.8314C12.3547 16.2219 11.7215 16.2219 11.331 15.8314C10.9405 15.4409 10.9405 14.8077 11.331 14.4172L12.6239 13.1243L4.03809 13.1243C3.4858 13.1243 3.03809 12.6766 3.03809 12.1243C3.03809 11.572 3.4858 11.1243 4.03809 11.1243L12.6239 11.1243L11.331 9.83138C10.9405 9.44085 10.9405 8.80769 11.331 8.41716Z" fill="white"/>
</svg>
