<svg width="24" height="25" viewBox="0 0 24 25" fill="none" xmlns="http://www.w3.org/2000/svg">
<path d="M12 15.2456L15 12.2456M15 12.2456L12 9.24561M15 12.2456L4 12.2456M4 17.2456C4 18.1775 4 18.6434 4.15224 19.011C4.35523 19.501 4.74481 19.8904 5.23486 20.0934C5.6024 20.2456 6.06812 20.2456 7 20.2456H16.8C17.9201 20.2456 18.48 20.2456 18.9078 20.0276C19.2841 19.8358 19.5905 19.53 19.7822 19.1536C20.0002 18.7258 20 18.1657 20 17.0456V7.44556C20 6.32545 20.0002 5.76547 19.7822 5.33765C19.5905 4.96132 19.2841 4.65534 18.9078 4.46359C18.48 4.24561 17.9201 4.24561 16.8 4.24561H7C6.06812 4.24561 5.60241 4.24561 5.23486 4.39785C4.74481 4.60083 4.35523 4.99017 4.15224 5.48022C4 5.84777 4 6.31371 4 7.24559" stroke="#939598" stroke-width="2" stroke-linecap="round" stroke-linejoin="round"/>
</svg>
