<svg width="25" height="24" viewBox="0 0 25 24" fill="none" xmlns="http://www.w3.org/2000/svg">
<path d="M20.0312 6.33723V5.59998C20.0312 5.03992 20.0309 4.75993 19.9219 4.54602C19.826 4.35786 19.6738 4.20487 19.4856 4.10899C19.2717 4 18.9909 4 18.4309 4H5.63086C5.07081 4 4.79106 4 4.57715 4.10899C4.38899 4.20487 4.23612 4.35786 4.14024 4.54602C4.03125 4.75993 4.03125 5.03992 4.03125 5.59998V6.33723C4.03125 6.58182 4.03125 6.70417 4.05888 6.81925C4.08338 6.92129 4.12388 7.0188 4.17871 7.10828C4.24053 7.20916 4.32699 7.29562 4.49984 7.46846L4.5 7.46863L9.56274 12.5314C9.73569 12.7043 9.82193 12.7908 9.88377 12.8917C9.9386 12.9812 9.97941 13.0787 10.0039 13.1808C10.0313 13.2947 10.0313 13.4156 10.0312 13.6553V13.6627V18.4111C10.0312 19.2683 10.0312 19.697 10.2118 19.9551C10.3694 20.1805 10.6127 20.3311 10.8848 20.3713C11.1964 20.4173 11.58 20.2256 12.3467 19.8423L13.1467 19.4423C13.4677 19.2817 13.6281 19.2014 13.7454 19.0817C13.8491 18.9758 13.9282 18.8481 13.9766 18.708C14.0312 18.5495 14.0312 18.3701 14.0312 18.0111V13.6627C14.0312 13.4181 14.0312 13.2959 14.0589 13.1808C14.0834 13.0787 14.1239 12.9812 14.1787 12.8917C14.2405 12.7908 14.327 12.7044 14.4998 12.5316L14.5 12.5314L19.5627 7.46863C19.7357 7.29568 19.8219 7.20919 19.8838 7.10828C19.9386 7.0188 19.9794 6.92129 20.0039 6.81925C20.0313 6.70534 20.0313 6.58431 20.0312 6.34468V6.33723Z" stroke="#005FD2" stroke-width="2" stroke-linecap="round" stroke-linejoin="round"/>
</svg>
