<svg width="25" height="24" viewBox="0 0 25 24" fill="none" xmlns="http://www.w3.org/2000/svg">
<g id="grommet-icons:document-pdf" clip-path="url(#clip0_551_1470)">
<path id="Vector (Stroke)" fill-rule="evenodd" clip-rule="evenodd" d="M4.39644 0H20.3127L24.3984 4.08579V24H4.39844V22H22.3984V7H17.3984V2H6.39644V9H4.39644V0ZM19.3984 2V5H22.3984V4.91421L19.4842 2H19.3984ZM2.39844 11H4.89844C6.11882 11 7.01538 11.3932 7.56606 12.109C8.07809 12.7747 8.14844 13.5425 8.14844 14C8.14844 14.4575 8.07809 15.2253 7.56606 15.891C7.01538 16.6068 6.11882 17 4.89844 17H4.64844V19H2.39844V11ZM4.39844 15H4.89844C5.67805 15 5.90649 14.7682 5.98081 14.6715C6.09378 14.5247 6.14844 14.2925 6.14844 14C6.14844 13.7075 6.09378 13.4753 5.98081 13.3285C5.90649 13.2318 5.67805 13 4.89844 13H4.39844V15ZM8.89844 11H11.6034C12.3021 11 13.1912 11.1527 13.8892 11.8602C14.5803 12.5607 14.8984 13.6175 14.8984 15C14.8984 16.3825 14.5803 17.4393 13.8892 18.1398C13.1912 18.8473 12.3021 19 11.6034 19H8.89844V11ZM10.8984 13V17H11.6034C12.0417 17 12.3002 16.9027 12.4654 16.7352C12.6376 16.5607 12.8984 16.1175 12.8984 15C12.8984 13.8825 12.6376 13.4393 12.4654 13.2648C12.3002 13.0973 12.0417 13 11.6034 13H10.8984ZM15.8984 11H20.8984V13H17.8984V14.5H19.8984V16.5H17.8984V19H15.8984V11Z" fill="white"/>
</g>
<defs>
<clipPath id="clip0_551_1470">
<rect width="24" height="24" fill="white" transform="translate(0.398438)"/>
</clipPath>
</defs>
</svg>
