<svg width="25" height="24" viewBox="0 0 25 24" fill="none" xmlns="http://www.w3.org/2000/svg">
<g id="grommet-icons:document-pdf" clip-path="url(#clip0_551_3252)">
<path id="Vector" d="M5.1064 9V1H19.6084L23.1084 4.5V23H4.1084M18.1084 1V6H23.1084M16.6084 19V12H20.6084M16.6084 15.5H19.6084M3.1084 12H4.6084C6.6084 12 6.8584 13.25 6.8584 14C6.8584 14.75 6.6084 16 4.6084 16H3.3584V18H3.1084V12ZM9.6084 18V12H11.3134C12.4504 12 13.6084 12.5 13.6084 15C13.6084 17.5 12.4504 18 11.3134 18H9.6084Z" stroke="#0F3C73" stroke-width="2"/>
</g>
<defs>
<clipPath id="clip0_551_3252">
<rect width="24" height="24" fill="white" transform="translate(0.108398)"/>
</clipPath>
</defs>
</svg>
