<svg width="240" height="95" viewBox="0 0 240 95" fill="none" xmlns="http://www.w3.org/2000/svg">
<g id="Group">
<g id="Group_2">
<path id="Vector" d="M193.101 84.0777V94.0931H194.468V84.0777H198.423V82.7842H189.146V84.0777H193.101ZM187.779 94.0931V92.7996H182.605V89.0299H187.114V87.7364H182.605V84.0777H187.631V82.7842H181.238V94.0931H187.779ZM173.883 84.0777V94.0931H175.251V84.0777H179.205V82.7842H169.929V84.0777H173.883ZM166.529 85.0385V94.0931H167.896V82.7842H166.677L159.802 91.8387V82.7842H158.435V94.0931H159.655L166.529 85.0385ZM152.67 92.9474C151.339 92.9474 150.304 92.5409 149.491 91.6908C148.678 90.8408 148.272 89.7691 148.272 88.4016C148.272 87.0712 148.678 85.9625 149.454 85.1494C150.231 84.2994 151.228 83.8929 152.485 83.8929C153.594 83.8929 154.518 84.1885 155.294 84.7429L155.922 83.7081C155.072 82.9689 153.926 82.5994 152.485 82.5994C150.748 82.5994 149.381 83.1537 148.383 84.2624C147.348 85.3712 146.867 86.7386 146.867 88.4386C146.867 90.1756 147.385 91.6169 148.457 92.6517C149.528 93.7235 150.896 94.2409 152.596 94.2409C153.298 94.2409 154 94.13 154.628 93.9083C155.294 93.6865 155.774 93.3909 156.181 92.9843L155.626 91.9495C154.739 92.6148 153.778 92.9474 152.67 92.9474ZM143.061 84.5951C143.504 85.0016 143.726 85.519 143.726 86.2212C143.726 86.9234 143.504 87.4777 143.024 87.8842C142.543 88.2908 141.915 88.4756 141.065 88.4756C140.585 88.4756 140.03 88.4386 139.402 88.4016V84.0407C140.104 84.0037 140.696 84.0037 141.102 84.0037C141.989 84.0407 142.617 84.2255 143.061 84.5951ZM139.402 89.7321C139.92 89.7691 140.474 89.806 141.102 89.806C142.396 89.806 143.393 89.4734 144.133 88.7712C144.835 88.069 145.204 87.256 145.204 86.2581C145.204 85.2603 144.872 84.4103 144.243 83.745C143.578 83.0798 142.507 82.7472 141.028 82.7472C140.77 82.7472 140.289 82.7472 139.513 82.7472C138.737 82.7472 138.256 82.7472 138.072 82.7472V94.0561H139.439V89.7321H139.402ZM135.115 94.0931V92.7996H129.941V89.0299H134.45V87.7364H129.941V84.0777H134.967V82.7842H128.574V94.0931H135.115ZM123.806 85.8146C123.806 86.406 123.584 86.8864 123.178 87.219C122.771 87.5516 122.254 87.7364 121.626 87.7364H119.815V84.0777C120.628 84.0407 121.182 84.0407 121.515 84.0407C123.03 84.0037 123.806 84.632 123.806 85.8146ZM123.547 89.3995C123.991 89.7321 124.213 90.1756 124.213 90.7669C124.213 91.4321 123.991 91.9495 123.511 92.3191C123.067 92.6517 122.402 92.8365 121.552 92.8365C120.887 92.8365 120.295 92.7995 119.815 92.7626V88.919H121.626C122.439 88.919 123.067 89.1038 123.547 89.3995ZM121.478 94.13C122.734 94.13 123.695 93.8713 124.471 93.3169C125.211 92.7626 125.58 91.9495 125.58 90.8408C125.58 90.1017 125.358 89.4734 124.952 89.0299C124.545 88.5864 123.954 88.2908 123.252 88.1799V88.1429C123.843 87.9582 124.287 87.6255 124.656 87.1821C125.026 86.7386 125.174 86.1842 125.174 85.519C125.174 84.669 124.878 84.0037 124.324 83.4863C123.732 82.9689 122.808 82.7102 121.552 82.7102C121.182 82.7102 120.147 82.7472 118.447 82.7842V94.0561C119.297 94.0931 120.332 94.13 121.478 94.13ZM113.495 85.0385V94.0931H114.863V82.7842H113.643L106.806 91.8387V82.7842H105.438V94.0931H106.658L113.495 85.0385ZM101.854 94.0931V82.7842H100.486V87.6625H94.2774V82.7842H92.91V94.0931H94.2774V88.956H100.486V94.0931H101.854ZM89.399 82.7842L86.2946 89.8799L82.0815 82.7842H80.5293L85.6663 91.2473L85.4816 91.6539C85.112 92.43 84.6685 92.7996 84.0772 92.7996C83.7815 92.7996 83.4859 92.6887 83.1902 92.5039L82.7098 93.6496C83.0424 93.9083 83.5228 94.0561 84.0772 94.0561C84.6685 94.0561 85.1859 93.8344 85.6294 93.4278C86.0729 93.0213 86.4794 92.3561 86.8859 91.4691L90.8034 82.7472H89.399V82.7842Z" fill="#0F3C73"/>
<path id="Vector_2" d="M207.995 62.273C208.549 62.6425 209.214 62.8273 210.064 62.8273C210.84 62.8273 211.506 62.6425 212.06 62.273C212.614 61.9034 212.947 61.4229 213.021 60.7947H211.727C211.58 61.4969 211.025 61.8295 210.064 61.8295C209.177 61.8295 208.586 61.4969 208.327 60.7947H207.034C207.108 61.386 207.44 61.9034 207.995 62.273ZM213.28 65.6361V74.6906H214.647V63.3817H213.427L206.59 72.4362V63.3817H205.223V74.6906H206.442L213.28 65.6361ZM191.401 63.3817V74.6906C191.586 74.6906 191.992 74.6906 192.583 74.6906C193.175 74.6906 193.618 74.6906 193.988 74.6906C195.392 74.6906 196.501 74.358 197.277 73.7297C198.053 73.0645 198.46 72.1775 198.46 70.9579C198.46 69.8492 198.127 68.9992 197.425 68.3709C196.723 67.7426 195.688 67.447 194.284 67.447C193.951 67.447 193.47 67.4839 192.768 67.5209V63.3078H191.401V63.3817ZM196.279 69.3687C196.76 69.7383 197.018 70.2927 197.018 71.0318C197.018 72.621 196.057 73.434 194.136 73.434C194.099 73.434 193.655 73.434 192.768 73.3971V68.8883C193.323 68.8144 193.803 68.7774 194.173 68.7774C195.097 68.8144 195.799 68.9992 196.279 69.3687ZM201.675 63.3817H200.308V74.6906H201.675V63.3817ZM187.853 74.6906V63.3817H186.486V68.26H180.277V63.3817H178.872V74.6906H180.24V69.5535H186.449V74.6906H187.853ZM169.005 63.3817V74.6906C169.19 74.6906 169.596 74.6906 170.224 74.6906C170.853 74.6906 171.333 74.6906 171.666 74.6906C173.107 74.6906 174.216 74.358 175.029 73.7297C175.842 73.0645 176.248 72.1775 176.248 70.9579C176.248 69.8492 175.879 68.9992 175.177 68.3709C174.474 67.7426 173.403 67.447 171.961 67.447C171.592 67.447 171.037 67.4839 170.372 67.5209V63.3078H169.005V63.3817ZM173.994 69.3687C174.511 69.7383 174.77 70.2927 174.77 71.0318C174.77 71.8449 174.511 72.4362 173.994 72.8427C173.477 73.2493 172.737 73.434 171.814 73.434C171.74 73.434 171.259 73.434 170.372 73.3971V68.8883C170.927 68.8144 171.444 68.7774 171.851 68.7774C172.774 68.8144 173.477 68.9992 173.994 69.3687ZM165.42 74.6906V63.3817H158.657L158.509 65.6361C158.398 67.0404 158.287 68.26 158.102 69.2579C157.918 70.2557 157.77 71.0318 157.585 71.5492C157.4 72.0666 157.215 72.4731 156.957 72.7688C156.698 73.0645 156.513 73.2123 156.365 73.2862C156.218 73.3232 156.033 73.3601 155.811 73.3232V74.6906C156.218 74.7275 156.55 74.7275 156.846 74.6536C157.142 74.5797 157.474 74.3949 157.77 74.0623C158.102 73.7666 158.361 73.3232 158.62 72.7319C158.842 72.1775 159.063 71.3644 159.285 70.3666C159.47 69.3687 159.655 68.1861 159.802 66.7817L159.987 64.6382H164.09V74.6536H165.42V74.6906ZM154.185 74.6906V73.3971H149.011V69.6274H153.52V68.3339H149.011V64.6752H154.037V63.3817H147.644V74.6906H154.185ZM140.289 64.6752V74.6906H141.656V64.6752H145.611V63.3817H136.335V64.6752H140.289ZM132.935 65.6361V74.6906H134.302V63.3817H133.082L126.245 72.4362V63.3817H124.878V74.6906H126.098L132.935 65.6361ZM113.347 65.7839C114.16 64.9339 115.195 64.4904 116.452 64.4904C117.671 64.4904 118.706 64.9339 119.519 65.7839C120.332 66.6339 120.776 67.7057 120.776 69.0361C120.776 70.3296 120.369 71.4014 119.556 72.2514C118.743 73.1014 117.708 73.5449 116.452 73.5449C115.232 73.5449 114.197 73.1014 113.384 72.2514C112.571 71.4014 112.128 70.2927 112.128 69.0361C112.128 67.7426 112.534 66.6339 113.347 65.7839ZM112.312 73.2123C113.421 74.2841 114.789 74.8384 116.452 74.8384C118.115 74.8384 119.482 74.2841 120.554 73.1753C121.663 72.0666 122.217 70.6992 122.217 68.9992C122.217 67.2991 121.663 65.8948 120.591 64.823C119.482 63.7513 118.115 63.1969 116.452 63.1969C114.789 63.1969 113.384 63.7513 112.312 64.86C111.241 65.9687 110.686 67.3731 110.686 68.9992C110.649 70.7362 111.204 72.1405 112.312 73.2123ZM106.917 65.2295C107.36 65.5991 107.545 66.1535 107.545 66.8557C107.545 67.5578 107.323 68.1122 106.843 68.5187C106.362 68.9253 105.734 69.11 104.884 69.11C104.404 69.11 103.849 69.0731 103.221 69.0361V64.6752C103.923 64.6382 104.515 64.6382 104.921 64.6382C105.845 64.6382 106.51 64.823 106.917 65.2295ZM103.258 70.3666C103.775 70.4035 104.33 70.4405 104.958 70.4405C106.252 70.4405 107.249 70.1079 107.988 69.4057C108.728 68.7035 109.06 67.8905 109.06 66.8926C109.06 65.8948 108.728 65.0448 108.099 64.3795C107.434 63.7143 106.362 63.3817 104.884 63.3817C104.625 63.3817 104.145 63.3817 103.369 63.3817C102.593 63.3817 102.112 63.3817 101.928 63.3817V74.6906H103.295V70.3666H103.258ZM94.5361 64.6752V74.6906H95.9035V64.6752H99.8579V63.3817H90.5817V64.6752H94.5361ZM86.3316 73.5449C85.0011 73.5449 83.9663 73.1384 83.1533 72.2884C82.3402 71.4384 81.9337 70.3666 81.9337 68.9992C81.9337 67.6687 82.3402 66.56 83.1163 65.7469C83.8924 64.8969 84.9272 64.4904 86.1468 64.4904C87.2555 64.4904 88.1794 64.7861 88.9555 65.3404L89.5838 64.3056C88.7338 63.5665 87.5881 63.1969 86.1468 63.1969C84.4098 63.1969 83.0424 63.7513 82.0445 64.86C81.0097 65.9687 80.5293 67.3361 80.5293 69.0361C80.5293 70.8101 81.0467 72.2144 82.1185 73.2492C83.1902 74.321 84.5576 74.8384 86.2577 74.8384C86.9598 74.8384 87.662 74.7275 88.2903 74.5058C88.9186 74.2841 89.436 73.9884 89.8425 73.5819L89.2882 72.5471C88.4012 73.2123 87.4403 73.5449 86.3316 73.5449Z" fill="#0F3C73"/>
<path id="Vector_3" d="M233.311 42.8701C233.865 43.2397 234.531 43.4245 235.381 43.4245C236.157 43.4245 236.822 43.2397 237.376 42.8701C237.931 42.5006 238.263 42.0201 238.337 41.3918H237.044C236.896 42.094 236.342 42.4266 235.381 42.4266C234.494 42.4266 233.902 42.094 233.644 41.3918H232.35C232.461 42.0201 232.794 42.5006 233.311 42.8701ZM238.633 46.2702V55.3247H240V43.9788H238.781L231.907 53.0334V43.9788H230.539V55.2878H231.759L238.633 46.2702ZM217.013 43.9788V55.2878C217.198 55.2878 217.604 55.2878 218.196 55.2878C218.787 55.2878 219.23 55.2878 219.6 55.2878C221.004 55.2878 222.113 54.9551 222.889 54.3269C223.665 53.6616 224.072 52.7747 224.072 51.5551C224.072 50.4464 223.739 49.5963 223.037 48.9681C222.335 48.3398 221.3 48.0441 219.896 48.0441C219.563 48.0441 219.083 48.0811 218.38 48.1181V43.9788H217.013ZM221.891 49.9659C222.372 50.3355 222.63 50.8898 222.63 51.629C222.63 53.2181 221.67 54.0312 219.748 54.0312C219.711 54.0312 219.267 54.0312 218.38 53.9942V49.4855C218.935 49.4116 219.415 49.3746 219.785 49.3746C220.709 49.4116 221.411 49.5963 221.891 49.9659ZM227.287 43.9788H225.92V55.2878H227.287V43.9788ZM213.761 55.2878V43.9788H212.393V48.8572H206.185V43.9788H204.817V55.2878H206.185V50.1507H212.393V55.2878H213.761ZM201.528 55.2878V43.9788H200.16V48.8572H193.952V43.9788H192.547V55.2878H193.915V50.1507H200.124V55.2878H201.528ZM189.96 55.2878V53.9942H184.786V50.2246H189.295V48.9311H184.786V45.2724H189.812V43.9788H183.419V55.2878H189.96ZM178.947 47.0463C178.947 47.6376 178.725 48.1181 178.319 48.4507C177.912 48.7833 177.395 48.9681 176.767 48.9681H174.956V45.3093C175.769 45.2724 176.323 45.2724 176.656 45.2724C178.171 45.2354 178.947 45.8267 178.947 47.0463ZM178.651 50.6311C179.095 50.9638 179.317 51.4072 179.317 51.9986C179.317 52.6638 179.095 53.1812 178.614 53.5508C178.171 53.8834 177.506 54.0682 176.656 54.0682C175.99 54.0682 175.399 54.0312 174.919 53.9942V50.1507H176.73C177.58 50.1507 178.208 50.2985 178.651 50.6311ZM176.619 55.3617C177.875 55.3617 178.836 55.103 179.612 54.5486C180.351 53.9942 180.721 53.1812 180.721 52.0725C180.721 51.3333 180.499 50.7051 180.093 50.2616C179.686 49.8181 179.095 49.5224 178.393 49.4116V49.3746C178.984 49.1898 179.428 48.8572 179.797 48.4137C180.167 47.9702 180.314 47.4159 180.314 46.7506C180.314 45.9006 180.019 45.2354 179.464 44.718C178.873 44.2006 177.949 43.9419 176.693 43.9419C176.323 43.9419 175.288 43.9788 173.588 44.0158V55.2878C174.438 55.3247 175.473 55.3617 176.619 55.3617ZM166.492 45.2724V55.2878H167.86V45.2724H171.851V43.9788H162.575V45.2724H166.492ZM158.584 54.179C157.253 54.179 156.218 53.7725 155.405 52.9225C154.592 52.0725 154.186 51.0007 154.186 49.6333C154.186 48.3028 154.592 47.1941 155.368 46.3811C156.144 45.5311 157.179 45.1245 158.399 45.1245C159.508 45.1245 160.432 45.4202 161.208 45.9745L161.836 44.9397C160.986 44.2006 159.84 43.831 158.399 43.831C156.662 43.831 155.294 44.3854 154.297 45.4941C153.299 46.6028 152.781 47.9702 152.781 49.6703C152.781 51.4442 153.299 52.8486 154.371 53.8834C155.442 54.9551 156.81 55.4725 158.51 55.4725C159.212 55.4725 159.914 55.3617 160.542 55.1399C161.208 54.9182 161.688 54.6225 162.095 54.216L161.54 53.1812C160.653 53.8464 159.692 54.179 158.584 54.179ZM149.27 45.8267C149.714 46.1963 149.936 46.7506 149.936 47.4528C149.936 48.155 149.714 48.7094 149.233 49.1159C148.753 49.5224 148.088 49.7072 147.275 49.7072C146.794 49.7072 146.24 49.6703 145.612 49.6333V45.2724C146.314 45.2354 146.905 45.2354 147.312 45.2354C148.199 45.2724 148.864 45.4571 149.27 45.8267ZM145.612 50.9638C146.129 51.0007 146.683 51.0377 147.312 51.0377C148.605 51.0377 149.603 50.7051 150.342 50.0029C151.044 49.3007 151.414 48.4876 151.414 47.4898C151.414 46.4919 151.081 45.6419 150.453 44.9767C149.788 44.3115 148.716 43.9788 147.238 43.9788C146.979 43.9788 146.499 43.9788 145.723 43.9788C144.946 43.9788 144.466 43.9788 144.281 43.9788V55.2878H145.649V50.9638H145.612ZM138.959 50.5942H134.894L136.927 45.7528L138.959 50.5942ZM132.898 55.2878L134.34 51.8507H139.477L140.918 55.2878H142.396L137.518 43.9049H136.372L131.494 55.2878H132.898ZM124.066 45.2724H128.02V53.9942H122.292C122.587 53.6616 122.883 52.8855 123.216 51.6659C123.548 50.4833 123.807 49.005 123.918 47.268L124.066 45.2724ZM120.85 57.3943V55.2878H129.646V57.3943H130.94V53.9942H129.387V43.9788H122.735L122.624 46.2332C122.513 48.3028 122.255 50.0029 121.885 51.3333C121.479 52.6638 121.109 53.5508 120.776 53.9573H119.557V57.3574H120.85V57.3943ZM118.892 43.9788L115.787 51.0746L111.574 43.9788H110.022L115.159 52.442L114.974 52.8486C114.605 53.6247 114.161 53.9942 113.57 53.9942C113.274 53.9942 112.978 53.8834 112.683 53.6986L112.202 54.8443C112.535 55.103 113.015 55.2508 113.57 55.2508C114.161 55.2508 114.679 55.029 115.122 54.6225C115.565 54.216 115.972 53.5508 116.379 52.6638L120.296 43.9419H118.892V43.9788ZM106.326 54.179C104.996 54.179 103.961 53.7725 103.148 52.9225C102.335 52.0725 101.928 51.0007 101.928 49.6333C101.928 48.3028 102.335 47.1941 103.111 46.3811C103.887 45.5311 104.922 45.1245 106.141 45.1245C107.25 45.1245 108.174 45.4202 108.95 45.9745L109.578 44.9397C108.728 44.2006 107.583 43.831 106.141 43.831C104.404 43.831 103.037 44.3854 102.039 45.4941C101.004 46.6028 100.524 47.9702 100.524 49.6703C100.524 51.4442 101.041 52.8486 102.113 53.8834C103.185 54.9551 104.552 55.4725 106.252 55.4725C106.954 55.4725 107.657 55.3617 108.285 55.1399C108.95 54.9182 109.431 54.6225 109.837 54.216L109.283 53.1812C108.396 53.8464 107.435 54.179 106.326 54.179ZM90.102 46.418C90.915 45.568 91.9498 45.1245 93.2064 45.1245C94.426 45.1245 95.4608 45.568 96.2738 46.418C97.0869 47.268 97.5304 48.3398 97.5304 49.6703C97.5304 50.9638 97.1238 52.0355 96.3108 52.8855C95.4977 53.7355 94.4629 54.179 93.2064 54.179C91.9868 54.179 90.952 53.7355 90.1389 52.8855C89.3259 52.0355 88.8824 50.9268 88.8824 49.6703C88.8824 48.3398 89.2889 47.268 90.102 46.418ZM89.0672 53.8464C90.1759 54.9182 91.5433 55.4725 93.2064 55.4725C94.8694 55.4725 96.2369 54.9182 97.3086 53.8095C98.4173 52.7007 98.9717 51.3333 98.9717 49.6333C98.9717 47.9333 98.4173 46.5289 97.3456 45.4571C96.2369 44.3854 94.8694 43.831 93.2064 43.831C91.5433 43.831 90.1759 44.3854 89.0672 45.4941C87.9585 46.6028 87.4411 48.0072 87.4411 49.6333C87.4411 51.3333 87.9585 52.7377 89.0672 53.8464ZM82.0823 55.2878V45.2724H86.9976V43.9788H80.7148V55.2878H82.0823Z" fill="#0F3C73"/>
<path id="Vector_4" d="M190.108 23.4678C190.663 23.8374 191.328 24.0221 192.178 24.0221C192.954 24.0221 193.619 23.8374 194.173 23.4678C194.728 23.0982 195.06 22.6178 195.134 21.9895H193.841C193.693 22.6917 193.139 23.0243 192.178 23.0243C191.291 23.0243 190.699 22.6917 190.441 21.9895H189.147C189.221 22.6178 189.554 23.0982 190.108 23.4678ZM195.393 26.8678V35.9224H196.76V24.6135H195.541L188.667 33.668V24.6135H187.299V35.9224H188.519L195.393 26.8678ZM182.421 26.8678V35.9224H183.788V24.6135H182.569L175.695 33.668V24.6135H174.327V35.9224H175.547L182.421 26.8678ZM164.977 24.6135H163.61V35.9224H164.977V24.6135ZM170.225 24.6135L165.273 30.0092L170.41 35.9224H172.184L166.825 29.9353L171.851 24.6135H170.225ZM157.845 34.7767C156.514 34.7767 155.479 34.3702 154.666 33.5201C153.853 32.6701 153.447 31.5984 153.447 30.231C153.447 28.9005 153.853 27.7918 154.629 26.9787C155.405 26.1657 156.44 25.7222 157.66 25.7222C158.768 25.7222 159.692 26.0178 160.468 26.5722L161.097 25.5374C160.247 24.7982 159.101 24.4287 157.66 24.4287C155.923 24.4287 154.555 24.983 153.557 26.0917C152.523 27.2005 152.042 28.5679 152.042 30.2679C152.042 32.0419 152.56 33.4462 153.631 34.481C154.703 35.5528 156.071 36.0702 157.771 36.0702C158.473 36.0702 159.175 35.9593 159.803 35.7376C160.468 35.5158 160.949 35.2202 161.355 34.8136L160.801 33.7788C159.914 34.4441 158.953 34.7767 157.845 34.7767ZM148.088 27.644C148.088 28.2353 147.866 28.7157 147.46 29.0483C147.053 29.3809 146.536 29.5657 145.907 29.5657H144.096V25.907C144.909 25.87 145.464 25.87 145.796 25.87C147.312 25.833 148.088 26.4613 148.088 27.644ZM147.829 31.2288C148.273 31.5614 148.494 32.0049 148.494 32.5962C148.494 33.2614 148.273 33.7788 147.792 34.1484C147.349 34.481 146.683 34.6658 145.833 34.6658C145.168 34.6658 144.577 34.6289 144.096 34.5919V30.7484H145.907C146.72 30.7484 147.386 30.9331 147.829 31.2288ZM145.76 35.9593C147.016 35.9593 147.977 35.7006 148.753 35.1463C149.492 34.5919 149.862 33.7788 149.862 32.6701C149.862 31.931 149.64 31.3027 149.233 30.8592C148.827 30.4157 148.236 30.1201 147.533 30.0092V29.9723C148.125 29.7875 148.568 29.4549 148.938 29.0114C149.307 28.5679 149.455 28.0135 149.455 27.3483C149.455 26.4983 149.16 25.833 148.605 25.3156C148.014 24.7982 147.09 24.5395 145.833 24.5395C145.427 24.5395 144.429 24.5765 142.729 24.6135V35.8854C143.616 35.9593 144.614 35.9593 145.76 35.9593ZM131.198 27.0157C132.011 26.1657 133.046 25.7222 134.303 25.7222C135.522 25.7222 136.557 26.1657 137.37 27.0157C138.183 27.8657 138.627 28.9375 138.627 30.2679C138.627 31.5614 138.22 32.6332 137.407 33.4832C136.594 34.3332 135.559 34.7767 134.303 34.7767C133.083 34.7767 132.048 34.3332 131.235 33.4832C130.422 32.6332 129.979 31.5245 129.979 30.2679C129.979 28.9375 130.385 27.8657 131.198 27.0157ZM130.164 34.4441C131.272 35.5158 132.64 36.0702 134.303 36.0702C135.966 36.0702 137.333 35.5158 138.405 34.4071C139.514 33.2984 140.068 31.931 140.068 30.231C140.068 28.5309 139.514 27.1266 138.442 26.0548C137.333 24.983 135.966 24.4287 134.303 24.4287C132.64 24.4287 131.235 24.983 130.164 26.0917C129.092 27.2005 128.537 28.6048 128.537 30.231C128.5 31.9679 129.055 33.3723 130.164 34.4441ZM120.739 24.6135H119.372V35.9224H120.739V24.6135ZM125.987 24.6135L121.035 30.0092L126.172 35.9224H127.946L122.587 29.9353L127.614 24.6135H125.987ZM113.57 34.7767C112.239 34.7767 111.205 34.3702 110.391 33.5201C109.578 32.6701 109.172 31.5984 109.172 30.231C109.172 28.9005 109.578 27.7918 110.355 26.9787C111.131 26.1287 112.165 25.7222 113.385 25.7222C114.494 25.7222 115.418 26.0178 116.194 26.5722L116.822 25.5374C115.972 24.7982 114.826 24.4287 113.385 24.4287C111.648 24.4287 110.281 24.983 109.283 26.0917C108.248 27.2005 107.768 28.5679 107.768 30.2679C107.768 32.0419 108.285 33.4462 109.357 34.481C110.428 35.5528 111.796 36.0702 113.496 36.0702C114.198 36.0702 114.9 35.9593 115.529 35.7376C116.194 35.5158 116.674 35.2202 117.081 34.8136L116.526 33.7788C115.676 34.4441 114.715 34.7767 113.57 34.7767ZM97.0869 27.0157C97.8999 26.1657 98.9347 25.7222 100.191 25.7222C101.411 25.7222 102.446 26.1657 103.259 27.0157C104.072 27.8657 104.515 28.9375 104.515 30.2679C104.515 31.5614 104.109 32.6332 103.296 33.4832C102.483 34.3332 101.448 34.7767 100.191 34.7767C98.9717 34.7767 97.9369 34.3332 97.1238 33.4832C96.3108 32.6332 95.8673 31.5245 95.8673 30.2679C95.8673 28.9375 96.2738 27.8657 97.0869 27.0157ZM96.0521 34.4441C97.1608 35.5158 98.5282 36.0702 100.191 36.0702C101.854 36.0702 103.222 35.5158 104.294 34.4071C105.402 33.2984 105.957 31.931 105.957 30.231C105.957 28.5309 105.402 27.1266 104.33 26.0548C103.222 24.983 101.854 24.4287 100.191 24.4287C98.5282 24.4287 97.1608 24.983 96.0521 26.0917C94.9803 27.2005 94.426 28.6048 94.426 30.231C94.426 31.9679 94.9434 33.3723 96.0521 34.4441ZM82.0823 35.9224V26.8309L86.1476 32.4114H86.3693L90.3607 26.7939V35.9224H91.7281V24.6135H90.4346L86.3693 30.4157L82.1192 24.6135H80.7148V35.9224H82.0823Z" fill="#0F3C73"/>
<path id="Vector_5" d="M236.674 8.24134C236.932 8.42613 237.302 8.537 237.709 8.537C238.115 8.537 238.448 8.42613 238.706 8.24134C238.965 8.05656 239.15 7.79785 239.187 7.5022H238.559C238.485 7.83481 238.189 8.0196 237.746 8.0196C237.302 8.0196 237.006 7.83481 236.896 7.5022H236.267C236.267 7.79785 236.415 8.05656 236.674 8.24134ZM239.335 9.90441V14.4132H240V8.7957H239.409L236.009 13.3045V8.7957H235.343V14.4501H235.935L239.335 9.90441ZM233.163 9.90441V14.4132H233.828V8.7957H233.237L229.837 13.3045V8.7957H229.135V14.4501H229.726L233.163 9.90441ZM224.811 8.7957H224.145V14.4501H224.811V8.7957ZM227.398 8.7957L224.921 11.4936L227.471 14.4501H228.358L225.734 11.4566L228.248 8.7957H227.398ZM221.521 13.8958C220.856 13.8958 220.339 13.674 219.932 13.2675C219.526 12.861 219.341 12.3066 219.341 11.6414C219.341 10.9762 219.526 10.4218 219.932 10.0153C220.339 9.60876 220.819 9.38701 221.447 9.38701C222.002 9.38701 222.445 9.53484 222.852 9.79354L223.147 9.27614C222.741 8.90657 222.15 8.72178 221.447 8.72178C220.597 8.72178 219.895 8.98048 219.415 9.53484C218.897 10.0892 218.676 10.7914 218.676 11.6044C218.676 12.4914 218.934 13.1936 219.452 13.711C219.969 14.2284 220.671 14.5241 221.521 14.5241C221.891 14.5241 222.224 14.4501 222.519 14.3393C222.852 14.2284 223.111 14.0806 223.295 13.8958L223.037 13.3784C222.556 13.711 222.076 13.8958 221.521 13.8958ZM214.573 8.7957V14.4501C214.684 14.4501 214.869 14.4501 215.165 14.4501C215.46 14.4501 215.719 14.4501 215.867 14.4501C216.569 14.4501 217.123 14.3023 217.53 13.9697C217.936 13.6371 218.121 13.1936 218.121 12.6023C218.121 12.0479 217.936 11.6414 217.604 11.3088C217.234 11.0131 216.717 10.8653 216.015 10.8653C215.83 10.8653 215.571 10.8653 215.239 10.9023V8.7957H214.573ZM217.05 11.7892C217.308 11.974 217.419 12.2697 217.419 12.6023C217.419 13.0088 217.308 13.3045 217.05 13.4893C216.791 13.674 216.421 13.7849 215.978 13.7849C215.941 13.7849 215.682 13.7849 215.276 13.748V11.4936C215.571 11.4566 215.793 11.4566 216.015 11.4566C216.421 11.4936 216.791 11.6044 217.05 11.7892ZM213.058 14.4501V8.7957H209.695L209.621 9.94137C209.584 10.6436 209.51 11.2349 209.436 11.7523C209.362 12.2697 209.252 12.6392 209.178 12.8979C209.104 13.1566 208.993 13.3414 208.882 13.4893C208.771 13.6371 208.66 13.711 208.586 13.748C208.512 13.7849 208.402 13.7849 208.328 13.7849V14.4871C208.512 14.5241 208.697 14.5241 208.845 14.4871C208.993 14.4501 209.141 14.3393 209.288 14.1914C209.436 14.0436 209.584 13.8219 209.695 13.5262C209.806 13.2306 209.917 12.861 210.028 12.3436C210.139 11.8631 210.212 11.2349 210.286 10.5327L210.397 9.46093H212.43V14.4871H213.058V14.4501ZM207.773 14.4501V13.8219H205.223V11.9371H207.478V11.2718H205.223V9.46093H207.699V8.83266H204.521V14.4871H207.773V14.4501ZM201.158 9.42397V14.4501H201.823V9.42397H203.782V8.7957H199.199V9.42397H201.158ZM198.054 12.0849H196.021L197.019 9.68267L198.054 12.0849ZM195.06 14.4501L195.762 12.7501H198.312L199.051 14.4501H199.79L197.351 8.75874H196.76L194.358 14.4501H195.06ZM192.99 10.3109C192.99 10.6066 192.88 10.8283 192.695 11.0131C192.473 11.1979 192.214 11.2718 191.919 11.2718H191.032V9.46093C191.438 9.46093 191.697 9.42397 191.882 9.42397C192.621 9.42397 192.99 9.71963 192.99 10.3109ZM192.843 12.1218C193.064 12.2697 193.175 12.4914 193.175 12.7871C193.175 13.1197 193.064 13.3784 192.843 13.5632C192.621 13.748 192.288 13.8219 191.882 13.8219C191.549 13.8219 191.253 13.8219 191.032 13.7849V11.8631H191.956C192.325 11.8631 192.621 11.9371 192.843 12.1218ZM191.845 14.4501C192.473 14.4501 192.953 14.3023 193.323 14.0436C193.693 13.7849 193.877 13.3784 193.877 12.824C193.877 12.4545 193.766 12.1588 193.582 11.9001C193.36 11.6784 193.101 11.5305 192.732 11.4566C193.027 11.3457 193.249 11.1979 193.434 10.9762C193.619 10.7544 193.693 10.4957 193.693 10.1262C193.693 9.68267 193.545 9.35006 193.249 9.09136C192.953 8.83266 192.51 8.72178 191.882 8.72178C191.697 8.72178 191.179 8.72179 190.329 8.75874V14.4132C190.773 14.4501 191.253 14.4501 191.845 14.4501ZM184.897 9.97833C185.303 9.53484 185.821 9.35006 186.412 9.35006C187.003 9.35006 187.521 9.5718 187.927 9.97833C188.334 10.4218 188.556 10.9392 188.556 11.6044C188.556 12.2697 188.371 12.7871 187.964 13.2306C187.558 13.674 187.04 13.8588 186.412 13.8588C185.821 13.8588 185.303 13.6371 184.897 13.1936C184.49 12.7501 184.269 12.2327 184.269 11.5675C184.305 10.9762 184.49 10.4218 184.897 9.97833ZM184.379 13.711C184.934 14.2654 185.599 14.5241 186.412 14.5241C187.225 14.5241 187.927 14.2654 188.445 13.711C188.999 13.1566 189.258 12.4545 189.258 11.6414C189.258 10.7914 188.999 10.0892 188.445 9.53484C187.89 8.98048 187.225 8.72178 186.412 8.72178C185.599 8.72178 184.897 9.01744 184.379 9.5718C183.825 10.1262 183.566 10.8283 183.566 11.6414C183.566 12.4545 183.825 13.1566 184.379 13.711ZM179.797 9.42397H181.755V13.7849H178.91C179.058 13.6001 179.205 13.2306 179.39 12.6392C179.575 12.0479 179.686 11.3088 179.723 10.4588L179.797 9.42397ZM178.208 15.485V14.4501H182.568V15.485H183.197V13.7849H182.421V8.7957H179.131L179.058 9.94137C179.021 10.9762 178.873 11.8262 178.688 12.4914C178.503 13.1566 178.318 13.6001 178.134 13.8219H177.542V15.5219H178.208V15.485ZM177.136 14.4501V13.8219H174.586V11.9371H176.84V11.2718H174.586V9.46093H177.062V8.83266H173.884V14.4871H177.136V14.4501ZM172.405 14.4501V8.7957H169.042L168.968 9.94137C168.931 10.6436 168.857 11.2349 168.783 11.7523C168.71 12.2697 168.599 12.6392 168.525 12.8979C168.451 13.1566 168.34 13.3414 168.229 13.4893C168.118 13.6371 168.007 13.711 167.933 13.748C167.859 13.7849 167.749 13.7849 167.675 13.7849V14.4871C167.86 14.5241 168.044 14.5241 168.192 14.4871C168.34 14.4501 168.488 14.3393 168.636 14.1914C168.783 14.0436 168.931 13.8219 169.042 13.5262C169.153 13.2306 169.264 12.861 169.375 12.3436C169.486 11.8631 169.56 11.2349 169.633 10.5327L169.744 9.46093H171.777V14.4871H172.405V14.4501ZM165.827 13.8958C165.162 13.8958 164.644 13.674 164.238 13.2675C163.831 12.861 163.646 12.3066 163.646 11.6414C163.646 10.9762 163.831 10.4218 164.238 10.0153C164.644 9.60876 165.125 9.38701 165.753 9.38701C166.307 9.38701 166.751 9.53484 167.157 9.79354L167.416 9.23919C167.009 8.86961 166.418 8.68483 165.716 8.68483C164.866 8.68483 164.164 8.94353 163.683 9.49789C163.166 10.0522 162.944 10.7544 162.944 11.5675C162.944 12.4545 163.203 13.1566 163.72 13.674C164.238 14.1914 164.94 14.4871 165.79 14.4871C166.159 14.4871 166.492 14.4132 166.788 14.3023C167.12 14.1914 167.379 14.0436 167.564 13.8588L167.305 13.3414C166.862 13.711 166.381 13.8958 165.827 13.8958ZM160.985 13.8958C160.32 13.8958 159.803 13.674 159.396 13.2675C158.99 12.861 158.805 12.3066 158.805 11.6414C158.805 10.9762 158.99 10.4218 159.396 10.0153C159.803 9.60876 160.283 9.38701 160.912 9.38701C161.466 9.38701 161.909 9.53484 162.316 9.79354L162.612 9.23919C162.205 8.86961 161.614 8.68483 160.912 8.68483C160.062 8.68483 159.359 8.94353 158.879 9.49789C158.361 10.0522 158.103 10.7544 158.103 11.5675C158.103 12.4545 158.361 13.1566 158.879 13.674C159.396 14.1914 160.098 14.4871 160.949 14.4871C161.318 14.4871 161.651 14.4132 161.946 14.3023C162.279 14.1914 162.538 14.0436 162.722 13.8588L162.464 13.3414C162.02 13.711 161.54 13.8958 160.985 13.8958ZM156.366 9.90441V14.4132H157.031V8.7957H156.44L153.04 13.3045V8.7957H152.374V14.4501H152.966L156.366 9.90441ZM146.055 8.24134C146.313 8.42613 146.683 8.537 147.09 8.537C147.496 8.537 147.829 8.42613 148.087 8.24134C148.346 8.05656 148.531 7.79785 148.568 7.5022H147.94C147.866 7.83481 147.57 8.0196 147.127 8.0196C146.683 8.0196 146.387 7.83481 146.276 7.5022H145.648C145.611 7.79785 145.759 8.05656 146.055 8.24134ZM148.679 9.90441V14.4132H149.344V8.7957H148.753L145.353 13.3045V8.7957H144.687V14.4501H145.279L148.679 9.90441ZM138.109 8.7957V14.4501C138.22 14.4501 138.405 14.4501 138.7 14.4501C138.996 14.4501 139.218 14.4501 139.402 14.4501C140.105 14.4501 140.659 14.3023 141.029 13.9697C141.435 13.6371 141.62 13.1936 141.62 12.6023C141.62 12.0479 141.435 11.6414 141.102 11.3088C140.77 11.0131 140.252 10.8653 139.55 10.8653C139.402 10.8653 139.144 10.8653 138.811 10.9023V8.7957H138.109ZM140.511 11.7892C140.733 11.974 140.881 12.2697 140.881 12.6023C140.881 13.4153 140.4 13.8219 139.439 13.8219C139.439 13.8219 139.181 13.8219 138.774 13.7849V11.5305C139.07 11.4936 139.292 11.4936 139.476 11.4936C139.92 11.4936 140.289 11.6044 140.511 11.7892ZM143.172 8.7957H142.507V14.4501H143.172V8.7957ZM136.631 14.4501V8.7957H135.965V11.2349H132.898V8.7957H132.233V14.4501H132.898V11.9001H135.965V14.4501H136.631ZM127.539 8.7957V14.4501C127.65 14.4501 127.835 14.4501 128.131 14.4501C128.426 14.4501 128.685 14.4501 128.833 14.4501C129.535 14.4501 130.089 14.3023 130.496 13.9697C130.902 13.6371 131.087 13.1936 131.087 12.6023C131.087 12.0479 130.902 11.6414 130.57 11.3088C130.2 11.0131 129.683 10.8653 128.981 10.8653C128.796 10.8653 128.537 10.8653 128.204 10.9023V8.7957H127.539ZM130.052 11.7892C130.311 11.974 130.422 12.2697 130.422 12.6023C130.422 13.0088 130.311 13.3045 130.052 13.4893C129.794 13.674 129.424 13.7849 128.981 13.7849C128.944 13.7849 128.685 13.7849 128.278 13.748V11.4936C128.574 11.4566 128.796 11.4566 129.017 11.4566C129.424 11.4936 129.794 11.6044 130.052 11.7892ZM126.061 14.4501V8.7957H122.698L122.624 9.94137C122.587 10.6436 122.513 11.2349 122.439 11.7523C122.365 12.2697 122.254 12.6392 122.18 12.8979C122.107 13.1566 121.996 13.3414 121.885 13.4893C121.774 13.6371 121.663 13.711 121.589 13.748C121.515 13.7849 121.404 13.7849 121.33 13.7849V14.4871C121.515 14.5241 121.7 14.5241 121.848 14.4871C121.996 14.4501 122.143 14.3393 122.291 14.1914C122.439 14.0436 122.587 13.8219 122.698 13.5262C122.809 13.2306 122.92 12.861 123.03 12.3436C123.141 11.8631 123.215 11.2349 123.289 10.5327L123.4 9.46093H125.433V14.4871H126.061V14.4501ZM119.556 12.0849H117.524L118.522 9.68267L119.556 12.0849ZM116.563 14.4501L117.265 12.7501H119.815L120.517 14.4501H121.256L118.854 8.75874H118.263L115.861 14.4501H116.563ZM115.085 14.4501V8.7957H114.419V11.2349H111.352V8.7957H110.687V14.4501H111.352V11.9001H114.419V14.4501H115.085ZM105.217 9.97833C105.624 9.53484 106.141 9.35006 106.732 9.35006C107.324 9.35006 107.841 9.5718 108.248 9.97833C108.654 10.4218 108.876 10.9392 108.876 11.6044C108.876 12.2697 108.691 12.7871 108.285 13.2306C107.878 13.674 107.361 13.8588 106.732 13.8588C106.141 13.8588 105.624 13.6371 105.217 13.1936C104.811 12.7501 104.589 12.2327 104.589 11.5675C104.626 10.9762 104.811 10.4218 105.217 9.97833ZM104.7 13.711C105.254 14.2654 105.919 14.5241 106.732 14.5241C107.545 14.5241 108.248 14.2654 108.765 13.711C109.319 13.1566 109.578 12.4545 109.578 11.6414C109.578 10.7914 109.319 10.0892 108.765 9.53484C108.211 8.98048 107.545 8.72178 106.732 8.72178C105.919 8.72178 105.217 9.01744 104.663 9.5718C104.108 10.1262 103.85 10.8283 103.85 11.6414C103.887 12.4545 104.145 13.1566 104.7 13.711ZM102.187 9.90441V14.4132H102.852V8.7957H102.26L98.8604 13.3045V8.7957H98.1952V14.4501H98.7865L102.187 9.90441ZM96.643 14.4501V15.485H97.2713V13.7849H96.4952V8.7957H95.8299V13.8219H92.8364V8.7957H92.1712V14.4501H96.643ZM89.695 12.0849H87.6624L88.6602 9.68267L89.695 12.0849ZM86.6646 14.4501L87.3667 12.7501H89.9168L90.619 14.4501H91.3581L88.9559 8.75874H88.3646L85.9624 14.4501H86.6646ZM85.2232 14.4501V8.7957H84.558V11.2349H81.4905V8.7957H80.8253V14.4501H81.4905V11.9001H84.558V14.4501H85.2232Z" fill="#0F3C73"/>
<path id="Vector_6" d="M0.0742188 14.1177V8.72192H1.18293L2.51339 12.5655C2.62426 12.935 2.73514 13.1937 2.77209 13.3785C2.84601 13.1937 2.91992 12.8981 3.06775 12.5285L4.39821 8.79584H5.39605V14.1916H4.69387V9.6089L3.06775 14.1177H2.40252L0.776405 9.53498V14.1177H0.0742188Z" fill="#0F3C73"/>
<path id="Vector_7" d="M16.2607 8.72192H16.926V13.009L19.8825 8.72192H20.6217V14.1177H19.9565V9.8676L16.9999 14.1177H16.2607V8.72192Z" fill="#0F3C73"/>
<path id="Vector_8" d="M49.3009 8.72192H49.9661V13.009L52.9227 8.72192H53.6619V14.1177H52.9966V9.8676L50.04 14.1177H49.3009V8.72192Z" fill="#0F3C73"/>
<path id="Vector_9" d="M36.772 12.2329L37.5112 12.4177C37.3633 13.009 37.0677 13.4525 36.6981 13.7481C36.2916 14.0438 35.8111 14.2286 35.2198 14.2286C34.6285 14.2286 34.1481 14.1177 33.7785 13.859C33.4089 13.6373 33.1133 13.2677 32.9285 12.8242C32.7437 12.3807 32.6328 11.9003 32.6328 11.3829C32.6328 10.8285 32.7437 10.3481 32.9654 9.90459C33.1872 9.49806 33.4828 9.16544 33.8894 8.9437C34.2959 8.72196 34.7394 8.61108 35.2198 8.61108C35.7742 8.61108 36.2546 8.75891 36.6242 9.01761C36.9938 9.31327 37.2525 9.68284 37.4003 10.1633L36.6611 10.3111C36.5503 9.90459 36.3285 9.64589 36.1068 9.4611C35.8481 9.27631 35.5524 9.2024 35.1829 9.2024C34.7394 9.2024 34.4068 9.31327 34.1111 9.49806C33.8154 9.68284 33.6307 9.9785 33.5198 10.3111C33.4089 10.6437 33.335 10.9763 33.335 11.3459C33.335 11.7894 33.4089 12.1959 33.5198 12.5285C33.6676 12.8612 33.8894 13.1199 34.1481 13.3046C34.4437 13.4894 34.7394 13.5633 35.072 13.5633C35.4785 13.5633 35.8481 13.4525 36.1068 13.1938C36.4764 13.009 36.6981 12.6764 36.772 12.2329Z" fill="#0F3C73"/>
<path id="Vector_10" d="M22.47 0L26.8309 9.97844L31.8201 0H22.47Z" fill="#0F3C73"/>
<path id="Vector_11" d="M33.0767 71.7708V66.1533L46.8248 62.4206L50.5574 68.6664L33.0767 71.7708ZM36.218 73.6556L26.2396 74.9122V46.1964L33.7419 49.3008L33.7789 65.4511L32.4854 65.525V73.0273H36.218V73.6556ZM37.0681 64.4533L34.2593 65.3772L34.2963 50.5574L37.0311 51.5182L37.0681 64.4533ZM24.9831 44.9399V45.5681L21.2504 43.6833L17.5177 47.416V71.1425L12.5285 69.2577L3.80659 71.1425L1.2935 73.0273C1.92177 71.1425 2.55005 69.9229 3.17832 68.0381L26.8309 27.4591L46.4182 61.4967L37.4376 64.2685V51.1487L34.2963 49.8921V48.6356L24.9831 44.9399ZM21.3243 76.76V44.9768L24.9461 46.7877V76.1317V76.76H21.3243ZM26.8679 79.4209V81.3797H22.7656V91.3951H20.4743V79.4209H26.8679ZM30.2679 80.8992C31.5245 79.7166 33.0767 79.1253 34.9245 79.1253C36.0333 79.1253 37.0311 79.347 37.8811 79.8275V82.4884C37.0681 81.6384 36.0702 81.2318 34.8137 81.2318C33.631 81.2318 32.6702 81.6014 31.8941 82.3775C31.081 83.1536 30.6745 84.1515 30.6745 85.408C30.6745 86.6645 31.081 87.6624 31.8571 88.4385C32.6332 89.1776 33.5941 89.5472 34.8137 89.5472C35.9963 89.5472 36.9941 89.1407 37.8811 88.2907V90.9516C36.8463 91.432 35.8485 91.6538 34.8876 91.6538C32.9289 91.6538 31.3397 91.0624 30.1571 89.9168C28.9375 88.7341 28.3092 87.2189 28.3092 85.408C28.3092 83.5971 28.9744 82.0818 30.2679 80.8992ZM43.0182 79.4209L46.1226 85.3341L48.8944 79.4209H51.4444L45.5313 91.3951H42.9812L44.866 87.7363L40.2833 79.4209H43.0182ZM12.4915 76.1317V70.5142L16.8525 72.3991V76.1317H12.4915ZM4.98922 76.1317V71.7708L11.8633 70.5142V76.1317H4.98922ZM15.4481 91.3951L14.2655 83.3754L11.5306 91.3951H9.57191L6.83708 83.3754L5.65445 91.3951H3.32615L5.28488 79.4209H7.76101L10.5328 88.4385L13.3046 79.4209H15.7807L17.7395 91.3951H15.4481ZM48.6726 56.1749L26.8309 12.4915L4.98922 56.1749C3.14136 59.538 1.51524 59.7597 0 56.1749V94.2408H53.6618V76.76L26.2026 76.1317V75.5035L52.4053 72.3991L53.6618 76.76V56.1749C51.814 59.9075 50.5574 59.9075 48.6726 56.1749Z" fill="#0F3C73"/>
</g>
</g>
</svg>
