<svg width="25" height="25" viewBox="0 0 25 25" fill="none" xmlns="http://www.w3.org/2000/svg">
<g clip-path="url(#clip0_551_2716)">
<path d="M15.6094 11.3463L21.7852 5.20752C23.0345 8.90174 23.7544 14.3761 17.0128 14.3761" stroke="#939598" stroke-width="2"/>
<path d="M8.91211 11.3463L2.73633 5.17383C1.48698 8.86805 1.13641 14.4693 7.30495 14.4693" stroke="#939598" stroke-width="2"/>
<path d="M8.80859 16.0806V10.5132H15.6094V16.0806L12.2781 18.0087L8.80859 16.0806Z" stroke="#939598" stroke-width="2"/>
<path d="M14.1526 18.7917L15.2312 20.761L12.1446 22.6753L8.72563 20.761L10.0739 18.7917M17.5212 6.02544L15.6848 4.08057C14.5048 4.56637 13.5932 6.36941 13.5932 8.81537" stroke="#939598" stroke-width="2"/>
<path d="M7.22081 5.99861L9.07378 4.08057C10.2539 4.56637 11.2656 6.34258 11.2656 8.78854" stroke="#939598" stroke-width="2"/>
<path d="M13.0027 2.5918H11.7306C11.6246 2.26986 11.6066 1.62598 12.3828 1.62598C13.159 1.62598 13.1195 2.26986 13.0027 2.5918Z" stroke="#939598" stroke-width="2"/>
<path d="M6.72727 19.727L2.4248 16.6694" stroke="#939598" stroke-width="2"/>
<circle cx="19.1057" cy="18.3311" r="1" stroke="#939598" stroke-width="1.78174"/>
</g>
<defs>
<clipPath id="clip0_551_2716">
<rect width="24" height="24" fill="white" transform="translate(0.133789 0.5)"/>
</clipPath>
</defs>
</svg>
