<svg width="25" height="24" viewBox="0 0 25 24" fill="none" xmlns="http://www.w3.org/2000/svg">
<g id="Communication / Paper_Plane">
<path id="Vector" d="M10.6205 13.6922L15.4667 8.84607M20.424 5.88855L16.3334 19.1831C15.9667 20.3749 15.7834 20.9708 15.4672 21.1684C15.1929 21.3398 14.853 21.3679 14.5543 21.244C14.2099 21.1011 13.9307 20.5434 13.3731 19.4281L10.7821 14.2462C10.6936 14.0692 10.6493 13.9807 10.5902 13.904C10.5378 13.836 10.477 13.7749 10.409 13.7225C10.3323 13.6634 10.2436 13.6191 10.0666 13.5306L4.88467 10.9397C3.76936 10.382 3.21166 10.1033 3.06875 9.75891C2.94481 9.46022 2.97308 9.11992 3.14443 8.84567C3.34202 8.52943 3.93798 8.34614 5.12979 7.97943L18.4244 3.88879C19.3613 3.6005 19.8297 3.45633 20.1461 3.57251C20.4218 3.67371 20.6393 3.89096 20.7405 4.16662C20.8567 4.48311 20.7123 4.95159 20.424 5.88855Z" stroke="white" stroke-width="2" stroke-linecap="round" stroke-linejoin="round"/>
</g>
</svg>
