<svg width="25" height="24" viewBox="0 0 25 24" fill="none" xmlns="http://www.w3.org/2000/svg">
<g id="Edit / Copy">
<path id="Vector" d="M9.76562 14.9999L9.76562 17.7999C9.76562 18.92 9.76565 19.4798 9.98364 19.9077C10.1754 20.284 10.4813 20.5904 10.8576 20.7821C11.2854 21.0001 11.8455 21.0001 12.9656 21.0001L18.5656 21.0001C19.6857 21.0001 20.2458 21.0001 20.6736 20.7821C21.0499 20.5904 21.3559 20.284 21.5476 19.9077C21.7656 19.4798 21.7656 18.9202 21.7656 17.8001L21.7656 12.2001C21.7656 11.08 21.7656 10.5195 21.5476 10.0917C21.3559 9.71535 21.0499 9.40961 20.6736 9.21786C20.2458 8.99988 19.6857 8.99988 18.5656 8.99988L15.7656 8.99988M6.96555 2.99988L12.5656 2.99988C13.6857 2.99988 14.2458 2.99988 14.6736 3.21786C15.0499 3.40961 15.3559 3.71535 15.5476 4.09167C15.7656 4.5195 15.7656 5.07997 15.7656 6.20007L15.7656 11.8001C15.7656 12.9202 15.7656 13.4798 15.5476 13.9077C15.3559 14.284 15.0499 14.5904 14.6736 14.7821C14.2458 15.0001 13.6857 15.0001 12.5656 15.0001L6.96558 15.0001C5.84547 15.0001 5.28542 15.0001 4.85759 14.7821C4.48127 14.5904 4.17539 14.284 3.98364 13.9077C3.76566 13.4798 3.76562 12.9202 3.76562 11.8001L3.76562 6.20007C3.76563 5.07997 3.76566 4.5195 3.98364 4.09167C4.17539 3.71535 4.48127 3.40961 4.8576 3.21786C5.28542 2.99988 5.84545 2.99988 6.96555 2.99988Z" stroke="#939598" stroke-width="2" stroke-linecap="round" stroke-linejoin="round"/>
<path id="Vector_2" d="M8.20653 6.03065C7.816 5.64013 7.18284 5.64013 6.79232 6.03065C6.40179 6.42118 6.40179 7.05434 6.79232 7.44487L8.20653 6.03065ZM12.0343 11.2727L12.0343 12.2727C12.5866 12.2727 13.0343 11.825 13.0343 11.2727L12.0343 11.2727ZM13.0343 7.87149C13.0343 7.3192 12.5866 6.87149 12.0343 6.87149C11.4821 6.87149 11.0343 7.3192 11.0343 7.87149L13.0343 7.87149ZM8.63315 10.2727C8.08087 10.2727 7.63315 10.7204 7.63315 11.2727C7.63315 11.825 8.08087 12.2727 8.63315 12.2727L8.63315 10.2727ZM6.79232 7.44487L11.3272 11.9798L12.7414 10.5656L8.20653 6.03065L6.79232 7.44487ZM11.0343 7.87149L11.0343 11.2727L13.0343 11.2727L13.0343 7.87149L11.0343 7.87149ZM12.0343 10.2727L8.63315 10.2727L8.63315 12.2727L12.0343 12.2727L12.0343 10.2727Z" fill="#939598"/>
</g>
</svg>
