<svg width="24" height="24" viewBox="0 0 24 24" fill="none" xmlns="http://www.w3.org/2000/svg">
<path d="M19.0004 20H20.0004M16.0004 20H14.0004V17M17.0004 17H20.0004V14H19.0004M14.0004 14H16.0004M4.00037 17C4.00037 16.0681 4.00037 15.6022 4.15261 15.2346C4.3556 14.7446 4.74517 14.3552 5.23523 14.1522C5.60277 14 6.06871 14 7.0006 14C7.93248 14 8.39819 14 8.76573 14.1522C9.25579 14.3552 9.64503 14.7446 9.84802 15.2346C10.0003 15.6022 10.0003 16.0681 10.0003 17C10.0003 17.9319 10.0003 18.3978 9.84802 18.7654C9.64503 19.2554 9.25579 19.6448 8.76573 19.8478C8.39819 20 7.93248 20 7.0006 20C6.06872 20 5.60277 20 5.23523 19.8478C4.74517 19.6448 4.3556 19.2554 4.15261 18.7654C4.00037 18.3978 4.00037 17.9319 4.00037 17ZM14.0004 6.99999C14.0004 6.0681 14.0004 5.60216 14.1526 5.23462C14.3556 4.74456 14.7452 4.35523 15.2352 4.15224C15.6028 4 16.0687 4 17.0006 4C17.9325 4 18.3982 4 18.7657 4.15224C19.2558 4.35523 19.645 4.74456 19.848 5.23462C20.0003 5.60216 20.0003 6.06812 20.0003 7C20.0003 7.93188 20.0003 8.39783 19.848 8.76537C19.645 9.25542 19.2558 9.64479 18.7657 9.84778C18.3982 10 17.9325 10 17.0006 10C16.0687 10 15.6028 10 15.2352 9.84778C14.7452 9.64479 14.3556 9.25542 14.1526 8.76537C14.0004 8.39782 14.0004 7.93187 14.0004 6.99999ZM4.00037 6.99999C4.00037 6.0681 4.00037 5.60216 4.15261 5.23462C4.3556 4.74456 4.74517 4.35523 5.23523 4.15224C5.60277 4 6.06871 4 7.0006 4C7.93248 4 8.39819 4 8.76573 4.15224C9.25579 4.35523 9.64503 4.74456 9.84802 5.23462C10.0003 5.60216 10.0003 6.06812 10.0003 7C10.0003 7.93188 10.0003 8.39783 9.84802 8.76537C9.64503 9.25542 9.25579 9.64479 8.76573 9.84778C8.39819 10 7.93248 10 7.0006 10C6.06872 10 5.60277 10 5.23523 9.84778C4.74517 9.64479 4.3556 9.25542 4.15261 8.76537C4.00037 8.39782 4.00037 7.93187 4.00037 6.99999Z" stroke="#939598" stroke-width="2" stroke-linecap="round" stroke-linejoin="round"/>
</svg>
