<svg width="25" height="24" viewBox="0 0 25 24" fill="none" xmlns="http://www.w3.org/2000/svg">
<g id="Edit / Remove_Minus_Circle">
<path id="Vector (Stroke)" fill-rule="evenodd" clip-rule="evenodd" d="M12.7617 4C8.34344 4 4.76172 7.58172 4.76172 12C4.76172 16.4183 8.34344 20 12.7617 20C17.18 20 20.7617 16.4183 20.7617 12C20.7617 7.58172 17.18 4 12.7617 4ZM2.76172 12C2.76172 6.47715 7.23887 2 12.7617 2C18.2846 2 22.7617 6.47715 22.7617 12C22.7617 17.5228 18.2846 22 12.7617 22C7.23887 22 2.76172 17.5228 2.76172 12ZM7.76172 12C7.76172 11.4477 8.20943 11 8.76172 11H16.7617C17.314 11 17.7617 11.4477 17.7617 12C17.7617 12.5523 17.314 13 16.7617 13H8.76172C8.20943 13 7.76172 12.5523 7.76172 12Z" fill="#0F3C73"/>
</g>
</svg>
