<svg width="25" height="25" viewBox="0 0 25 25" fill="none" xmlns="http://www.w3.org/2000/svg">
<path d="M15.8409 14.9157C15.4504 14.5252 14.8172 14.5252 14.4267 14.9157C14.0362 15.3062 14.0362 15.9394 14.4267 16.3299L15.8409 14.9157ZM20.4267 22.3299C20.8172 22.7204 21.4504 22.7204 21.8409 22.3299C22.2314 21.9394 22.2314 21.3062 21.8409 20.9157L20.4267 22.3299ZM10.1338 16.6228C6.82008 16.6228 4.13379 13.9365 4.13379 10.6228H2.13379C2.13379 15.0411 5.71551 18.6228 10.1338 18.6228V16.6228ZM4.13379 10.6228C4.13379 7.30909 6.82008 4.6228 10.1338 4.6228V2.6228C5.71551 2.6228 2.13379 6.20452 2.13379 10.6228H4.13379ZM10.1338 4.6228C13.4475 4.6228 16.1338 7.30909 16.1338 10.6228H18.1338C18.1338 6.20452 14.5521 2.6228 10.1338 2.6228V4.6228ZM16.1338 10.6228C16.1338 13.9365 13.4475 16.6228 10.1338 16.6228V18.6228C14.5521 18.6228 18.1338 15.0411 18.1338 10.6228H16.1338ZM14.4267 16.3299L20.4267 22.3299L21.8409 20.9157L15.8409 14.9157L14.4267 16.3299Z" fill="#0F3C73"/>
</svg>
