<svg width="25" height="24" viewBox="0 0 25 24" fill="none" xmlns="http://www.w3.org/2000/svg">
<path d="M15.7257 14.2929C15.3351 13.9024 14.702 13.9024 14.3114 14.2929C13.9209 14.6834 13.9209 15.3166 14.3114 15.7071L15.7257 14.2929ZM20.3114 21.7071C20.702 22.0976 21.3351 22.0976 21.7257 21.7071C22.1162 21.3166 22.1162 20.6834 21.7257 20.2929L20.3114 21.7071ZM10.0186 16C6.70485 16 4.01855 13.3137 4.01855 10H2.01855C2.01855 14.4183 5.60028 18 10.0186 18V16ZM4.01855 10C4.01855 6.68629 6.70485 4 10.0186 4V2C5.60028 2 2.01855 5.58172 2.01855 10H4.01855ZM10.0186 4C13.3323 4 16.0186 6.68629 16.0186 10H18.0186C18.0186 5.58172 14.4368 2 10.0186 2V4ZM16.0186 10C16.0186 13.3137 13.3323 16 10.0186 16V18C14.4368 18 18.0186 14.4183 18.0186 10H16.0186ZM14.3114 15.7071L20.3114 21.7071L21.7257 20.2929L15.7257 14.2929L14.3114 15.7071Z" fill="white"/>
</svg>
