<svg width="25" height="24" viewBox="0 0 25 24" fill="none" xmlns="http://www.w3.org/2000/svg">
<path fill-rule="evenodd" clip-rule="evenodd" d="M6.10275 7.09436C5.04969 8.44904 4.42261 10.1513 4.42261 12C4.42261 16.4183 8.00433 20 12.4226 20C14.2713 20 15.9736 19.3729 17.3283 18.3199L6.10275 7.09436ZM7.51696 5.68014L18.7425 16.9056C19.7955 15.551 20.4226 13.8487 20.4226 12C20.4226 7.58172 16.8409 4 12.4226 4C10.5739 4 8.87165 4.62708 7.51696 5.68014ZM2.42261 12C2.42261 6.47715 6.89976 2 12.4226 2C17.9455 2 22.4226 6.47715 22.4226 12C22.4226 17.5228 17.9455 22 12.4226 22C6.89976 22 2.42261 17.5228 2.42261 12Z" fill="white"/>
</svg>
