<svg width="25" height="24" viewBox="0 0 25 24" fill="none" xmlns="http://www.w3.org/2000/svg">
<path d="M14.5723 10V17M10.5723 10L10.5723 17M4.57227 6H20.5723M18.5723 6V17.8C18.5723 18.9201 18.5725 19.4802 18.3545 19.908C18.1627 20.2844 17.8564 20.5902 17.4801 20.782C17.0522 21 16.4926 21 15.3725 21H9.77246C8.65236 21 8.09189 21 7.66406 20.782C7.28774 20.5902 6.982 20.2844 6.79025 19.908C6.57227 19.4802 6.57227 18.9201 6.57227 17.8V6H18.5723ZM16.5723 6H8.57227C8.57227 5.06812 8.57227 4.60216 8.72451 4.23462C8.92749 3.74456 9.31658 3.35523 9.80664 3.15224C10.1742 3 10.6404 3 11.5723 3H13.5723C14.5041 3 14.9701 3 15.3376 3.15224C15.8277 3.35523 16.2169 3.74456 16.4199 4.23462C16.5722 4.60216 16.5723 5.06812 16.5723 6Z" stroke="#939598" stroke-width="2" stroke-linecap="round" stroke-linejoin="round"/>
</svg>
