<svg width="25" height="24" viewBox="0 0 25 24" fill="none" xmlns="http://www.w3.org/2000/svg">
<path fill-rule="evenodd" clip-rule="evenodd" d="M11.0061 2H13.0701C13.5087 1.99999 13.8872 1.99998 14.2005 2.02135C14.5303 2.04386 14.8602 2.09336 15.1861 2.22836C15.9213 2.53288 16.5052 3.11693 16.8096 3.85194C16.9446 4.1778 16.9941 4.50766 17.0167 4.83752C17.0203 4.88987 17.0232 4.94404 17.0257 5H20.0381C20.5904 5 21.0381 5.44772 21.0381 6C21.0381 6.55229 20.5904 7 20.0381 7H19.0381L19.0381 17.8411C19.0381 18.3671 19.0381 18.821 19.0076 19.1949C18.9754 19.5902 18.9042 19.9835 18.7113 20.362C18.4234 20.927 17.9638 21.3856 17.3999 21.673C17.0216 21.8657 16.6285 21.9371 16.2332 21.9694C15.8586 22 15.4038 22 14.8765 22H9.20017C8.67281 22 8.21782 22 7.84305 21.9694C7.44767 21.9371 7.05431 21.8658 6.67589 21.673C6.11125 21.3853 5.65261 20.9264 5.36507 20.362C5.17227 19.9836 5.10096 19.5904 5.06866 19.1951C5.03805 18.8205 5.03807 18.3657 5.03809 17.8385L5.03809 7H4.03809C3.4858 7 3.03809 6.55229 3.03809 6C3.03809 5.44772 3.4858 5 4.03809 5H7.05042C7.05289 4.94407 7.05587 4.88993 7.05944 4.83761C7.08194 4.50778 7.13144 4.17787 7.26645 3.85194C7.57084 3.11707 8.15447 2.53294 8.88978 2.22836C9.21574 2.09334 9.54575 2.04385 9.87559 2.02135C10.1889 1.99998 10.5675 1.99999 11.0061 2ZM9.05309 5H15.023C15.0225 4.99118 15.0219 4.98247 15.0213 4.97385C15.0058 4.74587 14.9791 4.65898 14.9619 4.6173C14.8603 4.37219 14.6657 4.17758 14.4208 4.07612C14.3792 4.05888 14.2923 4.03227 14.0643 4.01671C13.8273 4.00054 13.5177 4 13.0381 4H11.0381C10.5585 4 10.2488 4.00054 10.0117 4.01671C9.78359 4.03227 9.69672 4.0589 9.65514 4.07612C9.41034 4.17752 9.21579 4.37205 9.11421 4.6173C9.09697 4.65892 9.07035 4.74575 9.0548 4.97375C9.05421 4.9824 9.05364 4.99115 9.05309 5ZM7.03809 7V17.8C7.03809 18.3766 7.03886 18.7488 7.06201 19.0322C7.08421 19.3039 7.12189 19.4046 7.14708 19.454C7.24303 19.6424 7.39586 19.7952 7.58387 19.891C7.63327 19.9161 7.73407 19.9538 8.00591 19.9761C8.28936 19.9992 8.66175 20 9.23828 20H14.8383C15.4148 20 15.787 19.9992 16.0702 19.9761C16.3417 19.9539 16.4424 19.9162 16.4919 19.891C16.6806 19.7948 16.8337 19.6417 16.9293 19.454C16.9544 19.4047 16.9921 19.3041 17.0143 19.0324C17.0374 18.7489 17.0381 18.3767 17.0381 17.8V7H7.03809ZM10.0381 9C10.5904 9 11.0381 9.44772 11.0381 10V17C11.0381 17.5523 10.5904 18 10.0381 18C9.4858 18 9.03809 17.5523 9.03809 17L9.03809 10C9.03809 9.44772 9.4858 9 10.0381 9ZM14.0381 9C14.5904 9 15.0381 9.44772 15.0381 10V17C15.0381 17.5523 14.5904 18 14.0381 18C13.4858 18 13.0381 17.5523 13.0381 17V10C13.0381 9.44772 13.4858 9 14.0381 9Z" fill="white"/>
</svg>
