<svg width="25" height="24" viewBox="0 0 25 24" fill="none" xmlns="http://www.w3.org/2000/svg">
<path d="M17.1338 20C17.1338 18.3431 14.8952 17 12.1338 17C9.37237 17 7.13379 18.3431 7.13379 20M21.1338 16.9999C21.1338 15.7697 19.8997 14.7124 18.1338 14.2495M3.13379 16.9999C3.13379 15.7697 4.36788 14.7124 6.13379 14.2495M18.1338 10.2361C18.7475 9.68679 19.1338 8.8885 19.1338 8C19.1338 6.34315 17.7906 5 16.1338 5C15.3654 5 14.6645 5.28885 14.1338 5.76389M6.13379 10.2361C5.52004 9.68679 5.13379 8.8885 5.13379 8C5.13379 6.34315 6.47693 5 8.13379 5C8.90214 5 9.60303 5.28885 10.1338 5.76389M12.1338 14C10.4769 14 9.13379 12.6569 9.13379 11C9.13379 9.34315 10.4769 8 12.1338 8C13.7906 8 15.1338 9.34315 15.1338 11C15.1338 12.6569 13.7906 14 12.1338 14Z" stroke="#939598" stroke-width="2" stroke-linecap="round" stroke-linejoin="round"/>
</svg>
