<svg width="37" height="36" viewBox="0 0 37 36" fill="none" xmlns="http://www.w3.org/2000/svg">
<g id="User / Users">
<path id="Vector (Stroke)" fill-rule="evenodd" clip-rule="evenodd" d="M13.6025 9C11.1173 9 9.10254 11.0147 9.10254 13.5C9.10254 15.9853 11.1173 18 13.6025 18C16.0878 18 18.1025 15.9853 18.1025 13.5C18.1025 11.0147 16.0878 9 13.6025 9ZM6.10254 13.5C6.10254 9.35786 9.4604 6 13.6025 6C17.7447 6 21.1025 9.35786 21.1025 13.5C21.1025 17.6421 17.7447 21 13.6025 21C9.4604 21 6.10254 17.6421 6.10254 13.5ZM21.1025 7.5C21.1025 6.67157 21.7741 6 22.6025 6C26.7447 6 30.1025 9.35786 30.1025 13.5C30.1025 17.6421 26.7447 21 22.6025 21C21.7741 21 21.1025 20.3284 21.1025 19.5C21.1025 18.6716 21.7741 18 22.6025 18C25.0878 18 27.1025 15.9853 27.1025 13.5C27.1025 11.0147 25.0878 9 22.6025 9C21.7741 9 21.1025 8.32843 21.1025 7.5ZM6.40653 24.5093C8.31387 23.2377 10.8624 22.5 13.6025 22.5C16.3427 22.5 18.8912 23.2377 20.7986 24.5093C22.6954 25.7739 24.1025 27.6856 24.1025 30C24.1025 30.8284 23.431 31.5 22.6025 31.5C21.7741 31.5 21.1025 30.8284 21.1025 30C21.1025 29.0007 20.495 27.9124 19.1344 27.0054C17.7844 26.1054 15.833 25.5 13.6025 25.5C11.3721 25.5 9.42065 26.1054 8.07063 27.0054C6.71012 27.9124 6.10254 29.0007 6.10254 30C6.10254 30.8284 5.43097 31.5 4.60254 31.5C3.77411 31.5 3.10254 30.8284 3.10254 30C3.10254 27.6856 4.50967 25.7739 6.40653 24.5093ZM24.1425 23.9973C24.3325 23.1909 25.1402 22.6913 25.9466 22.8813C29.7023 23.7663 33.1025 26.3389 33.1025 29.9999C33.1025 30.8283 32.431 31.4999 31.6025 31.4999C30.7741 31.4999 30.1025 30.8283 30.1025 29.9999C30.1025 28.436 28.4939 26.5637 25.2585 25.8013C24.4522 25.6113 23.9525 24.8036 24.1425 23.9973Z" fill="#939598"/>
</g>
</svg>
