<svg width="25" height="25" viewBox="0 0 25 25" fill="none" xmlns="http://www.w3.org/2000/svg">
<path d="M21.1523 20.0619C21.1523 18.3203 19.4827 16.8387 17.1523 16.2896M15.1523 20.062C15.1523 17.8529 12.4661 16.062 9.15234 16.062C5.83863 16.062 3.15234 17.8529 3.15234 20.062M15.1523 13.062C17.3615 13.062 19.1523 11.2712 19.1523 9.06201C19.1523 6.85287 17.3615 5.06201 15.1523 5.06201M9.15234 13.062C6.9432 13.062 5.15234 11.2712 5.15234 9.06201C5.15234 6.85287 6.9432 5.06201 9.15234 5.06201C11.3615 5.06201 13.1523 6.85287 13.1523 9.06201C13.1523 11.2712 11.3615 13.062 9.15234 13.062Z" stroke="white" stroke-width="2" stroke-linecap="round" stroke-linejoin="round"/>
</svg>
