<svg width="25" height="24" viewBox="0 0 25 24" fill="none" xmlns="http://www.w3.org/2000/svg">
<path d="M21.6621 19.9999C21.6621 18.2583 19.9925 16.7767 17.6621 16.2275M15.6621 20C15.6621 17.7909 12.9758 16 9.66211 16C6.3484 16 3.66211 17.7909 3.66211 20M15.6621 13C17.8712 13 19.6621 11.2091 19.6621 9C19.6621 6.79086 17.8712 5 15.6621 5M9.66211 13C7.45297 13 5.66211 11.2091 5.66211 9C5.66211 6.79086 7.45297 5 9.66211 5C11.8712 5 13.6621 6.79086 13.6621 9C13.6621 11.2091 11.8712 13 9.66211 13Z" stroke="#0F3C73" stroke-width="2" stroke-linecap="round" stroke-linejoin="round"/>
</svg>
