<svg width="24" height="24" viewBox="0 0 24 24" fill="none" xmlns="http://www.w3.org/2000/svg">
<path d="M21.0004 19.9999C21.0004 18.2583 19.3308 16.7767 17.0004 16.2275M15.0004 20C15.0004 17.7909 12.3141 16 9.00037 16C5.68666 16 3.00037 17.7909 3.00037 20M15.0004 13C17.2095 13 19.0004 11.2091 19.0004 9C19.0004 6.79086 17.2095 5 15.0004 5M9.00037 13C6.79123 13 5.00037 11.2091 5.00037 9C5.00037 6.79086 6.79123 5 9.00037 5C11.2095 5 13.0004 6.79086 13.0004 9C13.0004 11.2091 11.2095 13 9.00037 13Z" stroke="#939598" stroke-width="2" stroke-linecap="round" stroke-linejoin="round"/>
</svg>
