<svg width="24" height="13" viewBox="0 0 24 13" fill="none" xmlns="http://www.w3.org/2000/svg">
<path d="M7.36922 6.29302C6.97869 5.90249 6.34553 5.90249 5.955 6.29302C5.56448 6.68354 5.56448 7.3167 5.955 7.70723L7.36922 6.29302ZM11.6119 11.9499L10.9047 12.657C11.2953 13.0475 11.9284 13.0475 12.3189 12.657L11.6119 11.9499ZM22.926 2.05038C23.3165 1.65987 23.3165 1.0267 22.926 0.63617C22.5355 0.245637 21.9023 0.245624 21.5118 0.63614L22.926 2.05038ZM2.41902 6.34331C2.0285 5.95278 1.39533 5.95278 1.00481 6.34331C0.614283 6.73383 0.614283 7.367 1.00481 7.75752L2.41902 6.34331ZM5.95456 12.7073C6.34508 13.0978 6.97824 13.0978 7.36877 12.7073C7.75929 12.3167 7.75929 11.6836 7.36877 11.2931L5.95456 12.7073ZM17.9753 2.10066C18.3658 1.71014 18.3658 1.07697 17.9753 0.686448C17.5847 0.295924 16.9516 0.295924 16.561 0.686448L17.9753 2.10066ZM11.2577 5.98975C10.8672 6.38027 10.8672 7.01344 11.2577 7.40396C11.6483 7.79449 12.2814 7.79449 12.672 7.40396L11.2577 5.98975ZM5.955 7.70723L10.9047 12.657L12.319 11.2428L7.36922 6.29302L5.955 7.70723ZM12.3189 12.657L22.926 2.05038L21.5118 0.63614L10.9048 11.2427L12.3189 12.657ZM1.00481 7.75752L5.95456 12.7073L7.36877 11.2931L2.41902 6.34331L1.00481 7.75752ZM16.561 0.686448L11.2577 5.98975L12.672 7.40396L17.9753 2.10066L16.561 0.686448Z" fill="white"/>
</svg>
