<svg width="25" height="25" viewBox="0 0 25 25" xmlns="http://www.w3.org/2000/svg">
<path d="M7.85945 11.3549C7.46893 10.9644 6.83576 10.9644 6.44524 11.3549C6.05471 11.7454 6.05471 12.3786 6.44524 12.7691L7.85945 11.3549ZM12.1021 17.0118L11.395 17.7189C11.7855 18.1094 12.4187 18.1094 12.8092 17.7189L12.1021 17.0118ZM23.4162 7.11227C23.8068 6.72176 23.8068 6.08859 23.4163 5.69806C23.0257 5.30753 22.3926 5.30751 22.002 5.69803L23.4162 7.11227ZM2.90926 11.4052C2.51873 11.0147 1.88557 11.0147 1.49504 11.4052C1.10452 11.7957 1.10452 12.4289 1.49504 12.8194L2.90926 11.4052ZM6.44479 17.7692C6.83531 18.1597 7.46848 18.1597 7.859 17.7692C8.24953 17.3786 8.24953 16.7455 7.859 16.3549L6.44479 17.7692ZM18.4655 7.16255C18.856 6.77203 18.856 6.13886 18.4655 5.74834C18.075 5.35781 17.4418 5.35781 17.0513 5.74834L18.4655 7.16255ZM11.748 11.0516C11.3574 11.4422 11.3574 12.0753 11.748 12.4659C12.1385 12.8564 12.7717 12.8564 13.1622 12.4659L11.748 11.0516ZM6.44524 12.7691L11.395 17.7189L12.8092 16.3047L7.85945 11.3549L6.44524 12.7691ZM12.8092 17.7189L23.4162 7.11227L22.002 5.69803L11.395 16.3046L12.8092 17.7189ZM1.49504 12.8194L6.44479 17.7692L7.859 16.3549L2.90926 11.4052L1.49504 12.8194ZM17.0513 5.74834L11.748 11.0516L13.1622 12.4659L18.4655 7.16255L17.0513 5.74834Z" fill="#0F3C73"/>
</svg>
